<svg width="495" height="330" viewBox="0 0 495 330" fill="none" xmlns="http://www.w3.org/2000/svg">
<path d="M254.361 88.0843L265.504 100.307L221.253 141.609C196.638 108.829 172.788 97.3563 130.645 100.728C93.5584 108.314 81.9446 121.823 68.0871 152.146C60.8327 173.38 60.829 185.287 65.5585 206.513C93.5965 275.091 166.744 285.584 204.21 244.444C282.707 170.618 324.533 122.637 408.185 39.1954L390.484 21.4943L492.471 0L468.871 101.571L450.749 83.8697C421.811 112.95 360.984 173.808 349.184 184.598L495 330H407.763L311.44 228.851L288.261 252.874C249.068 294.598 226.92 308.576 191.146 321.992C151.542 330.878 129.77 331.95 92.5303 319.464C56.4681 302.698 39.6326 290.259 20.465 258.353C-0.0985146 220.59 -2.62796 199.581 1.92191 162.261C13.5858 117.925 24.5263 94.5039 69.7728 61.1111C92.0933 45.5795 108.15 41.1363 141.838 39.1954C199.069 41.665 220.967 55.7957 254.361 88.0843Z" fill="#AEEC39"/>
</svg>
