<svg width="1161" height="166" viewBox="0 0 1161 166" fill="none" xmlns="http://www.w3.org/2000/svg">
<path d="M74.6152 165.148C60.3639 165.148 47.6165 161.926 36.373 155.48C25.1296 149.035 16.2493 139.689 9.73242 127.443C3.28711 115.197 0.0644531 100.409 0.0644531 83.0781C0.0644531 65.6042 3.32292 50.7441 9.83984 38.498C16.4284 26.252 25.3444 16.9062 36.5879 10.4609C47.903 4.01562 60.5788 0.792969 74.6152 0.792969C87.0046 0.792969 98.1406 3.08464 108.023 7.66797C117.978 12.2513 126.106 18.8757 132.408 27.541C138.71 36.2064 142.577 46.6979 144.01 59.0156H109.85C108.561 50.207 104.801 43.2962 98.5703 38.2832C92.3398 33.1986 84.6055 30.6562 75.3672 30.6562C63.0495 30.6562 53.1309 35.2396 45.6113 44.4062C38.0918 53.5013 34.332 66.3919 34.332 83.0781C34.332 100.122 38.0918 113.085 45.6113 121.965C53.2025 130.845 63.0853 135.285 75.2598 135.285C84.2116 135.285 91.8027 132.922 98.0332 128.195C104.335 123.469 108.274 116.844 109.85 108.322H144.01C142.792 118.133 139.283 127.372 133.482 136.037C127.753 144.702 119.911 151.721 109.957 157.092C100.074 162.463 88.2936 165.148 74.6152 165.148ZM240.475 165.148C226.295 165.148 213.548 161.926 202.232 155.48C190.917 149.035 181.965 139.689 175.377 127.443C168.788 115.197 165.494 100.409 165.494 83.0781C165.494 65.6042 168.788 50.7441 175.377 38.498C181.965 26.252 190.917 16.9062 202.232 10.4609C213.548 4.01562 226.295 0.792969 240.475 0.792969C254.654 0.792969 267.366 4.01562 278.609 10.4609C289.924 16.9062 298.876 26.252 305.465 38.498C312.053 50.7441 315.348 65.6042 315.348 83.0781C315.348 100.552 312.053 115.412 305.465 127.658C298.876 139.833 289.924 149.143 278.609 155.588C267.366 161.962 254.654 165.148 240.475 165.148ZM199.762 83.0781C199.762 99.9792 203.45 112.906 210.826 121.857C218.274 130.809 228.157 135.285 240.475 135.285C252.721 135.285 262.532 130.809 269.908 121.857C277.356 112.906 281.08 99.9792 281.08 83.0781C281.08 66.1055 277.356 53.1432 269.908 44.1914C262.532 35.168 252.721 30.6562 240.475 30.6562C228.157 30.6562 218.274 35.168 210.826 44.1914C203.45 53.1432 199.762 66.1055 199.762 83.0781ZM397.203 163H340.484V2.94141H397.633C413.746 2.94141 427.604 6.16406 439.205 12.6094C450.807 18.9831 459.723 28.1497 465.953 40.1094C472.255 51.9974 475.406 66.2487 475.406 82.8633C475.406 99.5495 472.255 113.872 465.953 125.832C459.723 137.792 450.771 146.994 439.098 153.439C427.424 159.813 413.46 163 397.203 163ZM374.215 133.996H395.699C410.81 133.996 422.268 129.95 430.074 121.857C437.88 113.765 441.783 100.767 441.783 82.8633C441.783 65.1029 437.88 52.1764 430.074 44.084C422.268 35.9915 410.81 31.9453 395.699 31.9453H374.215V133.996ZM500.543 163V2.94141H608.395V30.8711H534.273V68.4688H602.701V95.8613H534.273V135.07H608.609V163H500.543Z" fill="black"/>
<path d="M670.914 163L625.152 2.94141H662.105L688.639 114.123H690.035L719.146 2.94141H750.836L779.84 114.445H781.344L807.77 2.94141H844.83L798.961 163H765.982L735.582 58.3711H734.293L704 163H670.914ZM934.85 165.148C920.67 165.148 907.923 161.926 896.607 155.48C885.292 149.035 876.34 139.689 869.752 127.443C863.163 115.197 859.869 100.409 859.869 83.0781C859.869 65.6042 863.163 50.7441 869.752 38.498C876.34 26.252 885.292 16.9062 896.607 10.4609C907.923 4.01562 920.67 0.792969 934.85 0.792969C949.029 0.792969 961.741 4.01562 972.984 10.4609C984.299 16.9062 993.251 26.252 999.84 38.498C1006.43 50.7441 1009.72 65.6042 1009.72 83.0781C1009.72 100.552 1006.43 115.412 999.84 127.658C993.251 139.833 984.299 149.143 972.984 155.588C961.741 161.962 949.029 165.148 934.85 165.148ZM894.137 83.0781C894.137 99.9792 897.825 112.906 905.201 121.857C912.649 130.809 922.532 135.285 934.85 135.285C947.096 135.285 956.907 130.809 964.283 121.857C971.731 112.906 975.455 99.9792 975.455 83.0781C975.455 66.1055 971.731 53.1432 964.283 44.1914C956.907 35.168 947.096 30.6562 934.85 30.6562C922.532 30.6562 912.649 35.168 905.201 44.1914C897.825 53.1432 894.137 66.1055 894.137 83.0781ZM1034.86 163V2.94141H1097.81C1116 2.94141 1130.11 7.70378 1140.13 17.2285C1150.23 26.7533 1155.28 39.429 1155.28 55.2559C1155.28 66.2129 1152.84 75.5944 1147.97 83.4004C1143.1 91.1348 1136.12 96.9355 1127.03 100.803L1160.97 163H1123.59L1093.3 106.281H1068.59V163H1034.86ZM1068.59 79.1035H1091.47C1110.81 79.1035 1120.47 71.1543 1120.47 55.2559C1120.47 47.3066 1118.08 41.2194 1113.28 36.9941C1108.48 32.7689 1101.17 30.6562 1091.36 30.6562H1068.59V79.1035Z" fill="#2FBCF3"/>
</svg>
