<svg width="36" height="36" viewBox="0 0 36 36" fill="none" xmlns="http://www.w3.org/2000/svg">
<g clip-path="url(#clip0_2_398)">
<path d="M18 3V13.65C19.8 14.25 21 15.9 21 17.85C21 18.6 20.85 19.35 20.4 19.95L23.4 22.35C23.55 22.35 23.7 22.2 24 22.2C24.9 22.2 25.5 22.8 25.5 23.7C25.5 24.6 24.9 25.2 24 25.2C23.1 25.2 22.5 24.6 22.5 23.7V23.55L19.5 21.15C18.75 21.9 17.7 22.35 16.5 22.35C13.95 22.35 12 20.4 12 17.85C12 15.9 13.2 14.25 15 13.65V3.15H14.85C9.59995 3.75 5.24995 8.1 4.64995 13.5C4.19995 16.8 5.09995 19.8 6.89995 22.2C8.24995 24 8.99995 25.95 8.99995 28.2V33H22.5V28.5H25.5C27.15 28.5 28.5 27.15 28.5 25.5V21L30.75 20.1C31.35 19.8 31.65 18.9 31.35 18.3L28.5 13.8C27.9 8.25 23.55 3.75 18 3ZM16.5 15.75C15.3 15.75 14.25 16.8 14.25 18C14.25 19.2 15.3 20.25 16.5 20.25C17.7 20.25 18.75 19.2 18.75 18C18.75 16.8 17.7 15.75 16.5 15.75Z" fill="#377DFF"/>
</g>
<defs>
<clipPath id="clip0_2_398">
<rect width="36" height="36" fill="white"/>
</clipPath>
</defs>
</svg>
