<svg width="1477" height="279" viewBox="0 0 1477 279" fill="none" xmlns="http://www.w3.org/2000/svg">
<g filter="url(#filter0_f_496_2)">
<path d="M1452.34 138.309C1451.45 138.973 1450.2 138.796 1449.54 137.914L1443.76 130.236C1443.1 129.353 1443.27 128.099 1444.16 127.435L1449.11 123.709C1449.48 123.427 1450.02 123.502 1450.3 123.877V123.877L1457.01 132.203C1457.72 133.083 1457.56 134.377 1456.66 135.057L1452.34 138.309Z" fill="#9CBE46"/>
</g>
<g filter="url(#filter1_f_496_2)">
<path d="M1399.4 141.251C1398.52 141.915 1397.27 141.738 1396.6 140.855L1390.83 133.177C1390.16 132.294 1390.34 131.04 1391.22 130.376L1396.17 126.65C1396.55 126.368 1397.08 126.443 1397.36 126.819V126.819L1404.08 135.144C1404.79 136.024 1404.63 137.318 1403.73 137.998L1399.4 141.251Z" fill="#9CBE46"/>
</g>
<g filter="url(#filter2_f_496_2)">
<path d="M1363.23 127.403C1362.14 127.608 1361.1 126.893 1360.89 125.808L1359.11 116.365C1358.91 115.279 1359.62 114.234 1360.71 114.029L1366.8 112.883C1367.26 112.796 1367.71 113.1 1367.79 113.562V113.562L1370.13 124.001C1370.37 125.105 1369.65 126.194 1368.54 126.403L1363.23 127.403Z" fill="#9CBE46"/>
</g>
<g filter="url(#filter3_f_496_2)">
<path d="M1427.46 177.092C1426.58 178.042 1425.05 177.926 1424.33 176.855L1419.95 170.363C1419.42 169.569 1419.52 168.508 1420.2 167.831L1421.97 166.056L1424.25 163.295C1424.52 162.961 1425.04 162.972 1425.3 163.319V163.319L1430.66 171.364C1431.17 172.132 1431.09 173.15 1430.46 173.828L1427.46 177.092Z" fill="#9CBE46"/>
</g>
<g filter="url(#filter4_f_496_2)">
<path d="M1371.58 274.139C1370.71 275.089 1369.17 274.972 1368.45 273.902L1364.08 267.41C1363.54 266.616 1363.64 265.555 1364.32 264.878L1366.1 263.102L1368.37 260.342C1368.65 260.008 1369.17 260.019 1369.43 260.366V260.366L1374.78 268.411C1375.29 269.179 1375.21 270.197 1374.59 270.875L1371.58 274.139Z" fill="#9CBE46"/>
</g>
<g filter="url(#filter5_f_496_2)">
<path d="M1417.16 155.037C1416.29 155.987 1414.76 155.871 1414.04 154.8L1409.66 148.308C1409.12 147.515 1409.23 146.453 1409.9 145.776L1411.68 144.001L1413.96 141.24C1414.23 140.906 1414.75 140.917 1415.01 141.264V141.264L1420.37 149.31C1420.88 150.077 1420.8 151.095 1420.17 151.773L1417.16 155.037Z" fill="#9CBE46"/>
</g>
<g filter="url(#filter6_f_496_2)">
<path d="M1409.29 227.207C1408.17 226.553 1407.96 225.031 1408.85 224.098L1414.27 218.444C1414.93 217.753 1415.99 217.628 1416.8 218.146L1418.91 219.504L1422.09 221.144C1422.47 221.342 1422.57 221.849 1422.29 222.177V222.177L1415.56 229.119C1414.92 229.782 1413.91 229.919 1413.11 229.453L1409.29 227.207Z" fill="#9CBE46"/>
</g>
<path d="M1280.08 155.261C1305.47 123.117 1321.02 109.52 1354.33 103.797V148.644C1333.15 153.797 1322.68 162.488 1305.07 182.463C1322.55 208.904 1334.95 215.772 1358.74 222.899L1354.33 269.217C1327.76 263.01 1309.52 252.559 1277.87 217.753C1246.46 250.556 1230.59 263.978 1197 269.217V226.575C1223.16 219.789 1235.3 210.211 1252.88 182.463C1232.6 160.569 1220.72 151.119 1197 148.644V103.797C1239.16 107.359 1255.71 121.42 1280.08 155.261Z" fill="#2FBCF3" stroke="#31A9DE"/>
<g filter="url(#filter7_f_496_2)">
<rect x="1375.65" y="225.105" width="26.4672" height="19.1152" rx="2" fill="#9CBE46"/>
</g>
<g filter="url(#filter8_f_496_2)">
<path d="M1387.42 255.777C1387.42 254.673 1388.31 253.777 1389.42 253.777H1408.94C1410.05 253.777 1410.94 254.673 1410.94 255.777V267.746C1410.94 268.558 1410.28 269.217 1409.47 269.217V269.217L1389.48 269.883C1388.35 269.921 1387.42 269.015 1387.42 267.884V255.777Z" fill="#9CBE46"/>
</g>
<g filter="url(#filter9_f_496_2)">
<path d="M1440.67 187.107C1441.77 187.262 1442.53 188.273 1442.37 189.367L1439.64 208.702C1439.49 209.795 1438.48 210.557 1437.38 210.402L1425.53 208.729C1424.73 208.615 1424.17 207.871 1424.28 207.067V207.067L1426.42 187.181C1426.54 186.057 1427.56 185.256 1428.68 185.414L1440.67 187.107Z" fill="#9CBE46"/>
</g>
<g filter="url(#filter10_f_496_2)">
<path d="M1409.51 109.053C1410.2 109.919 1410.05 111.177 1409.19 111.863L1393.88 123.984C1393.01 124.669 1391.76 124.523 1391.07 123.657L1383.64 114.274C1383.14 113.637 1383.24 112.712 1383.88 112.208V112.208L1399.14 99.2772C1400 98.5462 1401.3 98.675 1402 99.5615L1409.51 109.053Z" fill="#9CBE46"/>
</g>
<g filter="url(#filter11_f_496_2)">
<path d="M1438.75 175.159C1437.69 175.47 1436.58 174.864 1436.27 173.804L1429.89 152.085C1429.58 151.026 1430.18 149.914 1431.24 149.603L1444.52 145.699C1445.4 145.44 1446.33 145.945 1446.59 146.827V146.827L1453.78 168.587C1454.14 169.661 1453.53 170.815 1452.45 171.134L1438.75 175.159Z" fill="#9CBE46"/>
</g>
<g filter="url(#filter12_f_496_2)">
<path d="M1417.43 110.248C1418.27 109.526 1419.53 109.619 1420.25 110.455L1435.04 127.592C1435.76 128.428 1435.67 129.691 1434.84 130.413L1424.36 139.456C1423.66 140.057 1422.61 139.98 1422.01 139.284V139.284L1406.46 122.443C1405.7 121.613 1405.77 120.312 1406.63 119.573L1417.43 110.248Z" fill="#9CBE46"/>
</g>
<g filter="url(#filter13_f_496_2)">
<path d="M1382.76 142.774C1382.79 143.878 1381.91 144.794 1380.81 144.82L1366.9 145.147C1365.79 145.173 1364.88 144.299 1364.85 143.195L1364.66 135.295C1364.65 134.677 1365.14 134.164 1365.76 134.149V134.149L1380.47 133.343C1381.6 133.281 1382.56 134.164 1382.58 135.293L1382.76 142.774Z" fill="#9CBE46"/>
</g>
<g filter="url(#filter14_f_496_2)">
<path d="M1376.88 253.051C1376.9 254.156 1376.03 255.072 1374.93 255.098L1361.01 255.424C1359.91 255.45 1358.99 254.576 1358.97 253.472L1358.78 245.572C1358.77 244.954 1359.26 244.441 1359.88 244.426V244.426L1374.59 243.62C1375.72 243.559 1376.68 244.442 1376.7 245.57L1376.88 253.051Z" fill="#9CBE46"/>
</g>
<g filter="url(#filter15_f_496_2)">
<path d="M1468.04 192.766C1468.07 193.87 1467.19 194.787 1466.09 194.813L1452.18 195.139C1451.08 195.165 1450.16 194.291 1450.13 193.187L1449.95 185.287C1449.93 184.669 1450.42 184.156 1451.04 184.141V184.141L1465.76 183.335C1466.89 183.273 1467.84 184.156 1467.87 185.285L1468.04 192.766Z" fill="#9CBE46"/>
</g>
<g filter="url(#filter16_f_496_2)">
<path d="M1364.64 101.578C1364.63 100.474 1365.52 99.5699 1366.63 99.5597L1380.54 99.4312C1381.64 99.421 1382.55 100.308 1382.56 101.413L1382.63 109.314C1382.64 109.933 1382.14 110.439 1381.52 110.444V110.444L1366.79 111.041C1365.67 111.086 1364.72 110.19 1364.71 109.061L1364.64 101.578Z" fill="#9CBE46"/>
</g>
<g filter="url(#filter17_f_496_2)">
<path d="M1412.58 96.8366C1413.13 95.8597 1414.38 95.5317 1415.35 96.1104L1438.92 110.275C1439.76 110.776 1440.11 111.806 1439.75 112.714L1439.19 114.175C1438.8 115.163 1437.64 115.588 1436.71 115.08V115.08L1423.86 106.983C1423.78 106.929 1423.69 106.882 1423.59 106.842L1412.25 101.897C1411.16 101.422 1410.72 100.108 1411.31 99.0751L1412.58 96.8366Z" fill="#9CBE46"/>
</g>
<g filter="url(#filter18_f_496_2)">
<path d="M1461.84 148.651C1462.92 148.318 1464.05 148.933 1464.36 150.014L1471.88 176.466C1472.15 177.403 1471.7 178.396 1470.82 178.817L1469.41 179.494C1468.45 179.953 1467.31 179.466 1466.98 178.459V178.459L1463.14 163.77C1463.12 163.672 1463.08 163.577 1463.04 163.484L1458.14 152.117C1457.67 151.026 1458.25 149.768 1459.38 149.415L1461.84 148.651Z" fill="#9CBE46"/>
</g>
<g filter="url(#filter19_f_496_2)">
<path d="M1456.74 238.076C1457.8 238.546 1458.24 239.812 1457.7 240.835L1451.55 252.508C1451.09 253.386 1450.05 253.792 1449.12 253.462L1446.85 252.663C1446.29 252.468 1446.02 251.842 1446.26 251.301V251.301L1450.31 244.273C1450.41 244.113 1450.48 243.94 1450.52 243.761L1451.86 238.466C1452.16 237.263 1453.47 236.624 1454.61 237.128L1456.74 238.076Z" fill="#9CBE46"/>
</g>
<g filter="url(#filter20_f_496_2)">
<path d="M1423 262.717C1422.43 261.769 1422.74 260.541 1423.69 259.975L1432.31 254.829C1433.26 254.263 1434.48 254.573 1435.05 255.521L1437.51 259.64C1437.76 260.056 1437.62 260.595 1437.2 260.843V260.843L1427.83 266.801C1426.88 267.405 1425.62 267.105 1425.04 266.138L1423 262.717Z" fill="#9CBE46"/>
</g>
<g filter="url(#filter21_f_496_2)">
<path d="M1419.78 243.119L1421.97 233.752L1433 224.195L1441.98 226.882L1445.65 235.704L1438.15 245.514L1430.95 249.673L1419.78 243.119Z" fill="#9CBE46"/>
</g>
<g filter="url(#filter22_f_496_2)">
<path d="M1451.01 227.58L1449.41 218.093L1455.9 205.019L1465.21 204.031L1472.01 210.749L1468.88 222.698L1463.84 229.313L1451.01 227.58Z" fill="#9CBE46"/>
</g>
<path d="M85.6152 270.148C71.3639 270.148 58.6165 266.926 47.373 260.48C36.1296 254.035 27.2493 244.689 20.7324 232.443C14.2871 220.197 11.0645 205.409 11.0645 188.078C11.0645 170.604 14.3229 155.744 20.8398 143.498C27.4284 131.252 36.3444 121.906 47.5879 115.461C58.903 109.016 71.5788 105.793 85.6152 105.793C98.0046 105.793 109.141 108.085 119.023 112.668C128.978 117.251 137.106 123.876 143.408 132.541C149.71 141.206 153.577 151.698 155.01 164.016H120.85C119.561 155.207 115.801 148.296 109.57 143.283C103.34 138.199 95.6055 135.656 86.3672 135.656C74.0495 135.656 64.1309 140.24 56.6113 149.406C49.0918 158.501 45.332 171.392 45.332 188.078C45.332 205.122 49.0918 218.085 56.6113 226.965C64.2025 235.845 74.0853 240.285 86.2598 240.285C95.2116 240.285 102.803 237.922 109.033 233.195C115.335 228.469 119.274 221.844 120.85 213.322H155.01C153.792 223.133 150.283 232.372 144.482 241.037C138.753 249.702 130.911 256.721 120.957 262.092C111.074 267.463 99.2936 270.148 85.6152 270.148ZM251.475 270.148C237.295 270.148 224.548 266.926 213.232 260.48C201.917 254.035 192.965 244.689 186.377 232.443C179.788 220.197 176.494 205.409 176.494 188.078C176.494 170.604 179.788 155.744 186.377 143.498C192.965 131.252 201.917 121.906 213.232 115.461C224.548 109.016 237.295 105.793 251.475 105.793C265.654 105.793 278.366 109.016 289.609 115.461C300.924 121.906 309.876 131.252 316.465 143.498C323.053 155.744 326.348 170.604 326.348 188.078C326.348 205.552 323.053 220.412 316.465 232.658C309.876 244.833 300.924 254.143 289.609 260.588C278.366 266.962 265.654 270.148 251.475 270.148ZM210.762 188.078C210.762 204.979 214.45 217.906 221.826 226.857C229.274 235.809 239.157 240.285 251.475 240.285C263.721 240.285 273.532 235.809 280.908 226.857C288.356 217.906 292.08 204.979 292.08 188.078C292.08 171.105 288.356 158.143 280.908 149.191C273.532 140.168 263.721 135.656 251.475 135.656C239.157 135.656 229.274 140.168 221.826 149.191C214.45 158.143 210.762 171.105 210.762 188.078ZM408.203 268H351.484V107.941H408.633C424.746 107.941 438.604 111.164 450.205 117.609C461.807 123.983 470.723 133.15 476.953 145.109C483.255 156.997 486.406 171.249 486.406 187.863C486.406 204.549 483.255 218.872 476.953 230.832C470.723 242.792 461.771 251.994 450.098 258.439C438.424 264.813 424.46 268 408.203 268ZM385.215 238.996H406.699C421.81 238.996 433.268 234.95 441.074 226.857C448.88 218.765 452.783 205.767 452.783 187.863C452.783 170.103 448.88 157.176 441.074 149.084C433.268 140.992 421.81 136.945 406.699 136.945H385.215V238.996ZM511.543 268V107.941H619.395V135.871H545.273V173.469H613.701V200.861H545.273V240.07H619.609V268H511.543Z" fill="black"/>
<path d="M681.914 268L636.152 107.941H673.105L699.639 219.123H701.035L730.146 107.941H761.836L790.84 219.445H792.344L818.77 107.941H855.83L809.961 268H776.982L746.582 163.371H745.293L715 268H681.914ZM945.85 270.148C931.67 270.148 918.923 266.926 907.607 260.48C896.292 254.035 887.34 244.689 880.752 232.443C874.163 220.197 870.869 205.409 870.869 188.078C870.869 170.604 874.163 155.744 880.752 143.498C887.34 131.252 896.292 121.906 907.607 115.461C918.923 109.016 931.67 105.793 945.85 105.793C960.029 105.793 972.741 109.016 983.984 115.461C995.299 121.906 1004.25 131.252 1010.84 143.498C1017.43 155.744 1020.72 170.604 1020.72 188.078C1020.72 205.552 1017.43 220.412 1010.84 232.658C1004.25 244.833 995.299 254.143 983.984 260.588C972.741 266.962 960.029 270.148 945.85 270.148ZM905.137 188.078C905.137 204.979 908.825 217.906 916.201 226.857C923.649 235.809 933.532 240.285 945.85 240.285C958.096 240.285 967.907 235.809 975.283 226.857C982.731 217.906 986.455 204.979 986.455 188.078C986.455 171.105 982.731 158.143 975.283 149.191C967.907 140.168 958.096 135.656 945.85 135.656C933.532 135.656 923.649 140.168 916.201 149.191C908.825 158.143 905.137 171.105 905.137 188.078ZM1045.86 268V107.941H1108.81C1127 107.941 1141.11 112.704 1151.13 122.229C1161.23 131.753 1166.28 144.429 1166.28 160.256C1166.28 171.213 1163.84 180.594 1158.97 188.4C1154.1 196.135 1147.12 201.936 1138.03 205.803L1171.97 268H1134.59L1104.3 211.281H1079.59V268H1045.86ZM1079.59 184.104H1102.47C1121.81 184.104 1131.47 176.154 1131.47 160.256C1131.47 152.307 1129.08 146.219 1124.28 141.994C1119.48 137.769 1112.17 135.656 1102.36 135.656H1079.59V184.104Z" fill="#2FBCF3"/>
<defs>
<filter id="filter0_f_496_2" x="1439.36" y="119.539" width="22.1002" height="23.1719" filterUnits="userSpaceOnUse" color-interpolation-filters="sRGB">
<feFlood flood-opacity="0" result="BackgroundImageFix"/>
<feBlend mode="normal" in="SourceGraphic" in2="BackgroundImageFix" result="shape"/>
<feGaussianBlur stdDeviation="2" result="effect1_foregroundBlur_496_2"/>
</filter>
<filter id="filter1_f_496_2" x="1386.42" y="122.48" width="22.1002" height="23.1719" filterUnits="userSpaceOnUse" color-interpolation-filters="sRGB">
<feFlood flood-opacity="0" result="BackgroundImageFix"/>
<feBlend mode="normal" in="SourceGraphic" in2="BackgroundImageFix" result="shape"/>
<feGaussianBlur stdDeviation="2" result="effect1_foregroundBlur_496_2"/>
</filter>
<filter id="filter2_f_496_2" x="1355.08" y="108.867" width="19.0945" height="22.5703" filterUnits="userSpaceOnUse" color-interpolation-filters="sRGB">
<feFlood flood-opacity="0" result="BackgroundImageFix"/>
<feBlend mode="normal" in="SourceGraphic" in2="BackgroundImageFix" result="shape"/>
<feGaussianBlur stdDeviation="2" result="effect1_foregroundBlur_496_2"/>
</filter>
<filter id="filter3_f_496_2" x="1415.61" y="159.051" width="19.3832" height="22.6875" filterUnits="userSpaceOnUse" color-interpolation-filters="sRGB">
<feFlood flood-opacity="0" result="BackgroundImageFix"/>
<feBlend mode="normal" in="SourceGraphic" in2="BackgroundImageFix" result="shape"/>
<feGaussianBlur stdDeviation="2" result="effect1_foregroundBlur_496_2"/>
</filter>
<filter id="filter4_f_496_2" x="1359.73" y="256.098" width="19.3832" height="22.6875" filterUnits="userSpaceOnUse" color-interpolation-filters="sRGB">
<feFlood flood-opacity="0" result="BackgroundImageFix"/>
<feBlend mode="normal" in="SourceGraphic" in2="BackgroundImageFix" result="shape"/>
<feGaussianBlur stdDeviation="2" result="effect1_foregroundBlur_496_2"/>
</filter>
<filter id="filter5_f_496_2" x="1405.32" y="136.996" width="19.3832" height="22.6875" filterUnits="userSpaceOnUse" color-interpolation-filters="sRGB">
<feFlood flood-opacity="0" result="BackgroundImageFix"/>
<feBlend mode="normal" in="SourceGraphic" in2="BackgroundImageFix" result="shape"/>
<feGaussianBlur stdDeviation="2" result="effect1_foregroundBlur_496_2"/>
</filter>
<filter id="filter6_f_496_2" x="1404.3" y="213.828" width="22.1532" height="19.8984" filterUnits="userSpaceOnUse" color-interpolation-filters="sRGB">
<feFlood flood-opacity="0" result="BackgroundImageFix"/>
<feBlend mode="normal" in="SourceGraphic" in2="BackgroundImageFix" result="shape"/>
<feGaussianBlur stdDeviation="2" result="effect1_foregroundBlur_496_2"/>
</filter>
<filter id="filter7_f_496_2" x="1371.65" y="221.105" width="34.4672" height="27.1133" filterUnits="userSpaceOnUse" color-interpolation-filters="sRGB">
<feFlood flood-opacity="0" result="BackgroundImageFix"/>
<feBlend mode="normal" in="SourceGraphic" in2="BackgroundImageFix" result="shape"/>
<feGaussianBlur stdDeviation="2" result="effect1_foregroundBlur_496_2"/>
</filter>
<filter id="filter8_f_496_2" x="1383.42" y="249.777" width="31.5264" height="24.1055" filterUnits="userSpaceOnUse" color-interpolation-filters="sRGB">
<feFlood flood-opacity="0" result="BackgroundImageFix"/>
<feBlend mode="normal" in="SourceGraphic" in2="BackgroundImageFix" result="shape"/>
<feGaussianBlur stdDeviation="2" result="effect1_foregroundBlur_496_2"/>
</filter>
<filter id="filter9_f_496_2" x="1420.27" y="181.395" width="26.1263" height="33.0273" filterUnits="userSpaceOnUse" color-interpolation-filters="sRGB">
<feFlood flood-opacity="0" result="BackgroundImageFix"/>
<feBlend mode="normal" in="SourceGraphic" in2="BackgroundImageFix" result="shape"/>
<feGaussianBlur stdDeviation="2" result="effect1_foregroundBlur_496_2"/>
</filter>
<filter id="filter10_f_496_2" x="1379.32" y="94.8047" width="34.6243" height="33.6094" filterUnits="userSpaceOnUse" color-interpolation-filters="sRGB">
<feFlood flood-opacity="0" result="BackgroundImageFix"/>
<feBlend mode="normal" in="SourceGraphic" in2="BackgroundImageFix" result="shape"/>
<feGaussianBlur stdDeviation="2" result="effect1_foregroundBlur_496_2"/>
</filter>
<filter id="filter11_f_496_2" x="1425.81" y="141.633" width="32.0767" height="37.6094" filterUnits="userSpaceOnUse" color-interpolation-filters="sRGB">
<feFlood flood-opacity="0" result="BackgroundImageFix"/>
<feBlend mode="normal" in="SourceGraphic" in2="BackgroundImageFix" result="shape"/>
<feGaussianBlur stdDeviation="2" result="effect1_foregroundBlur_496_2"/>
</filter>
<filter id="filter12_f_496_2" x="1401.93" y="105.762" width="37.5944" height="38.0977" filterUnits="userSpaceOnUse" color-interpolation-filters="sRGB">
<feFlood flood-opacity="0" result="BackgroundImageFix"/>
<feBlend mode="normal" in="SourceGraphic" in2="BackgroundImageFix" result="shape"/>
<feGaussianBlur stdDeviation="2" result="effect1_foregroundBlur_496_2"/>
</filter>
<filter id="filter13_f_496_2" x="1360.66" y="129.34" width="26.0961" height="19.8086" filterUnits="userSpaceOnUse" color-interpolation-filters="sRGB">
<feFlood flood-opacity="0" result="BackgroundImageFix"/>
<feBlend mode="normal" in="SourceGraphic" in2="BackgroundImageFix" result="shape"/>
<feGaussianBlur stdDeviation="2" result="effect1_foregroundBlur_496_2"/>
</filter>
<filter id="filter14_f_496_2" x="1354.78" y="239.617" width="26.0961" height="19.8086" filterUnits="userSpaceOnUse" color-interpolation-filters="sRGB">
<feFlood flood-opacity="0" result="BackgroundImageFix"/>
<feBlend mode="normal" in="SourceGraphic" in2="BackgroundImageFix" result="shape"/>
<feGaussianBlur stdDeviation="2" result="effect1_foregroundBlur_496_2"/>
</filter>
<filter id="filter15_f_496_2" x="1445.95" y="179.332" width="26.0961" height="19.8086" filterUnits="userSpaceOnUse" color-interpolation-filters="sRGB">
<feFlood flood-opacity="0" result="BackgroundImageFix"/>
<feBlend mode="normal" in="SourceGraphic" in2="BackgroundImageFix" result="shape"/>
<feGaussianBlur stdDeviation="2" result="effect1_foregroundBlur_496_2"/>
</filter>
<filter id="filter16_f_496_2" x="1360.64" y="95.4297" width="25.9868" height="19.6133" filterUnits="userSpaceOnUse" color-interpolation-filters="sRGB">
<feFlood flood-opacity="0" result="BackgroundImageFix"/>
<feBlend mode="normal" in="SourceGraphic" in2="BackgroundImageFix" result="shape"/>
<feGaussianBlur stdDeviation="2" result="effect1_foregroundBlur_496_2"/>
</filter>
<filter id="filter17_f_496_2" x="1407.05" y="91.8242" width="36.8456" height="27.4727" filterUnits="userSpaceOnUse" color-interpolation-filters="sRGB">
<feFlood flood-opacity="0" result="BackgroundImageFix"/>
<feBlend mode="normal" in="SourceGraphic" in2="BackgroundImageFix" result="shape"/>
<feGaussianBlur stdDeviation="2" result="effect1_foregroundBlur_496_2"/>
</filter>
<filter id="filter18_f_496_2" x="1453.98" y="144.559" width="21.9816" height="39.1094" filterUnits="userSpaceOnUse" color-interpolation-filters="sRGB">
<feFlood flood-opacity="0" result="BackgroundImageFix"/>
<feBlend mode="normal" in="SourceGraphic" in2="BackgroundImageFix" result="shape"/>
<feGaussianBlur stdDeviation="2" result="effect1_foregroundBlur_496_2"/>
</filter>
<filter id="filter19_f_496_2" x="1442.17" y="232.953" width="19.7576" height="24.625" filterUnits="userSpaceOnUse" color-interpolation-filters="sRGB">
<feFlood flood-opacity="0" result="BackgroundImageFix"/>
<feBlend mode="normal" in="SourceGraphic" in2="BackgroundImageFix" result="shape"/>
<feGaussianBlur stdDeviation="2" result="effect1_foregroundBlur_496_2"/>
</filter>
<filter id="filter20_f_496_2" x="1418.71" y="250.547" width="22.9193" height="20.5664" filterUnits="userSpaceOnUse" color-interpolation-filters="sRGB">
<feFlood flood-opacity="0" result="BackgroundImageFix"/>
<feBlend mode="normal" in="SourceGraphic" in2="BackgroundImageFix" result="shape"/>
<feGaussianBlur stdDeviation="2" result="effect1_foregroundBlur_496_2"/>
</filter>
<filter id="filter21_f_496_2" x="1415.78" y="220.195" width="33.8699" height="33.4766" filterUnits="userSpaceOnUse" color-interpolation-filters="sRGB">
<feFlood flood-opacity="0" result="BackgroundImageFix"/>
<feBlend mode="normal" in="SourceGraphic" in2="BackgroundImageFix" result="shape"/>
<feGaussianBlur stdDeviation="2" result="effect1_foregroundBlur_496_2"/>
</filter>
<filter id="filter22_f_496_2" x="1445.41" y="200.031" width="30.598" height="33.2812" filterUnits="userSpaceOnUse" color-interpolation-filters="sRGB">
<feFlood flood-opacity="0" result="BackgroundImageFix"/>
<feBlend mode="normal" in="SourceGraphic" in2="BackgroundImageFix" result="shape"/>
<feGaussianBlur stdDeviation="2" result="effect1_foregroundBlur_496_2"/>
</filter>
</defs>
</svg>
