<svg width="60" height="60" viewBox="0 0 60 60" fill="none" xmlns="http://www.w3.org/2000/svg">
<path fill-rule="evenodd" clip-rule="evenodd" d="M2.5 50.6C2.5 49.5507 3.359 48.7 4.4186 48.7H55.5815C56.641 48.7 57.5 49.5507 57.5 50.6C57.5 51.6492 56.641 52.5 55.5815 52.5H4.4186C3.359 52.5 2.5 51.6492 2.5 50.6Z" fill="#377DFF"/>
<path fill-rule="evenodd" clip-rule="evenodd" d="M9.22458 9.726C6.97681 11.952 6.97681 15.5346 6.97681 22.7V35.3667C6.97681 40.1435 6.97681 42.532 8.47533 44.016C9.97386 45.5 12.3857 45.5 17.2094 45.5H42.7908C47.6143 45.5 50.0263 45.5 51.5248 44.016C53.0233 42.532 53.0233 40.1435 53.0233 35.3667V22.7C53.0233 15.5346 53.0233 11.952 50.7756 9.726C48.5278 7.5 44.9101 7.5 37.6746 7.5H22.3256C15.0901 7.5 11.4724 7.5 9.22458 9.726ZM20.407 37.9C20.407 36.8507 21.266 36 22.3256 36H37.6746C38.7341 36 39.5931 36.8507 39.5931 37.9C39.5931 38.9492 38.7341 39.8 37.6746 39.8H22.3256C21.266 39.8 20.407 38.9492 20.407 37.9Z" fill="#377DFF"/>
</svg>
