<svg width="56" height="56" viewBox="0 0 56 56" fill="none" xmlns="http://www.w3.org/2000/svg">
<g clip-path="url(#clip0_34_130)">
<path d="M20.847 43.5063C19.2351 45.1148 17.0877 46.0053 14.8005 46.0053C12.5134 46.0053 10.3709 45.1197 8.75742 43.5063C8.37787 43.1267 8.03941 42.711 7.74366 42.2707V38.7447C7.74366 35.618 10.4383 31.77 13.7342 30.2074L16.161 29.0557C17.9273 29.335 19.5588 30.1335 20.847 31.42C24.1758 34.7505 24.1758 40.1725 20.847 43.5063ZM30.3043 26.6059C36.7467 26.6059 41.9634 18.5927 41.9634 11.2483C41.9634 3.89895 36.7467 0 30.3043 0C23.8669 0 18.6486 3.89895 18.6486 11.2483C18.6551 18.5927 23.8669 26.6059 30.3043 26.6059ZM46.8811 30.2074L39.3181 26.6124L34.3315 36.9834L31.8603 30.2682C31.346 30.3685 30.84 30.4966 30.306 30.4966C29.7736 30.4966 29.261 30.3685 28.75 30.2682L27.337 34.1047C28.2259 37.4385 27.7921 41.0746 25.9256 44.1684C26.2049 44.3212 26.4645 44.5085 26.6929 44.7385L29.1246 47.1703H52.8733V38.7513C52.8733 35.618 50.1754 31.77 46.8811 30.2074ZM32.7623 52.6679C33.132 53.0409 33.3341 53.5256 33.3341 54.0481C33.3341 54.5673 33.132 55.0569 32.7623 55.4282C32.3894 55.7995 31.9047 56.0016 31.3822 56.0016C30.863 56.0016 30.3717 55.7995 30.002 55.4282L22.9994 48.4255C22.7348 48.1594 22.5541 47.8226 22.4736 47.4463L22.2715 46.4802L21.4598 47.0437C19.4997 48.4091 17.1879 49.1321 14.7841 49.1321C11.6689 49.1321 8.73934 47.9244 6.54095 45.726C1.98806 41.1731 1.98806 33.7613 6.54095 29.2085C8.74427 27.0035 11.6755 25.7926 14.7973 25.7926C17.9207 25.7926 20.8535 27.0035 23.0552 29.2085C27.056 33.2076 27.6097 39.4792 24.3779 44.1273L23.8127 44.939L24.7804 45.1411C25.1567 45.2216 25.4935 45.4007 25.7597 45.6669L32.7623 52.6679ZM21.7753 30.49C19.9137 28.6285 17.4376 27.6048 14.8005 27.6048C12.1651 27.6048 9.68738 28.6285 7.82909 30.49C3.98108 34.3348 3.98108 40.5899 7.82909 44.4362C9.68738 46.2962 12.1667 47.3214 14.8005 47.3214C17.4376 47.3214 19.9137 46.2962 21.7753 44.4362C25.62 40.5899 25.62 34.3331 21.7753 30.49Z" fill="#377DFF"/>
</g>
<defs>
<clipPath id="clip0_34_130">
<rect width="56" height="56" fill="white"/>
</clipPath>
</defs>
</svg>
