<svg width="60" height="60" viewBox="0 0 60 60" fill="none" xmlns="http://www.w3.org/2000/svg">
<g clip-path="url(#clip0_34_119)">
<path d="M36.991 17.5231L35.3309 21.6719L36.5304 21.5244C40.673 21.006 44.6376 19.4553 46.5208 18.6426C48.3098 18.0034 49.8542 16.9115 50.9648 15.4933C52.0851 14.0654 52.7662 12.2898 52.7634 10.3719C52.7661 9.11823 52.4726 7.91963 51.9596 6.84467C51.1843 5.23006 49.9128 3.89096 48.3426 2.95288C46.7697 2.01479 44.8891 1.47514 42.8726 1.47327C40.1856 1.47514 37.7378 2.43268 35.9382 4.01975C35.0392 4.8137 34.3003 5.7669 33.7864 6.84456C33.2707 7.91952 32.9818 9.11811 32.9818 10.3718C32.98 11.9723 33.453 13.4767 34.2621 14.7588C34.9539 15.8551 35.8893 16.7913 36.991 17.5231ZM35.0046 7.57182C35.627 6.2667 36.6905 5.1267 38.0535 4.31307C39.4166 3.49956 41.0785 3.01581 42.8727 3.01674C45.268 3.01581 47.4197 3.87573 48.9508 5.22983C49.7155 5.90647 50.3263 6.70229 50.7415 7.5717C51.1568 8.44217 51.3825 9.38295 51.3835 10.3717C51.3825 11.8796 50.858 13.2846 49.9261 14.4769C48.9961 15.6674 47.6527 16.6295 46.0636 17.1879L46.0415 17.1941L46.0202 17.203C44.3912 17.9116 41.0935 19.1973 37.5902 19.8063L38.7781 16.8429L38.1957 16.5103C37.0176 15.8373 36.0546 14.9215 35.3914 13.8714C34.7281 12.816 34.3645 11.6334 34.3627 10.3717C34.3627 9.38307 34.5885 8.44229 35.0046 7.57182Z" fill="#377DFF"/>
<path d="M38.9711 11.789C39.5651 11.789 40.0461 11.2519 40.0461 10.5886C40.0461 9.92888 39.5651 9.39099 38.9711 9.39099C38.3798 9.39099 37.8979 9.92888 37.8979 10.5886C37.8979 11.2519 38.3799 11.789 38.9711 11.789Z" fill="#377DFF"/>
<path d="M43.1154 11.789C43.7076 11.789 44.1896 11.2519 44.1896 10.5886C44.1896 9.92888 43.7077 9.39099 43.1154 9.39099C42.5214 9.39099 42.0396 9.92888 42.0396 10.5886C42.0396 11.2519 42.5214 11.789 43.1154 11.789Z" fill="#377DFF"/>
<path d="M47.2569 11.789C47.8508 11.789 48.3311 11.2519 48.3311 10.5886C48.3311 9.92888 47.8508 9.39099 47.2569 9.39099C46.663 9.39099 46.1828 9.92888 46.1828 10.5886C46.1829 11.2519 46.663 11.789 47.2569 11.789Z" fill="#377DFF"/>
<path d="M59.8944 56.7263L50.3521 34.5573C50.1476 34.0834 49.6817 33.7766 49.1659 33.7766H10.8352C10.3194 33.7766 9.85351 34.0834 9.64901 34.5564L0.104913 56.7263C-0.0658294 57.1246 -0.0266888 57.5835 0.211553 57.9462C0.451671 58.3081 0.855264 58.5267 1.29097 58.5267H19.2748C20.8095 55.9313 23.4573 54.0481 27.1722 53.439C28.0275 53.7226 28.9398 53.8827 29.8894 53.8827C30.839 53.8827 31.7513 53.7226 32.6066 53.439C36.3197 54.0481 38.9676 55.9313 40.5023 58.5267H58.71C59.144 58.5267 59.5494 58.3081 59.7877 57.9462C60.0259 57.5835 60.0668 57.1246 59.8944 56.7263ZM36.5562 45.2413C36.5562 48.9232 33.5705 51.9081 29.8894 51.9081C26.2066 51.9081 23.2226 48.9231 23.2226 45.2413V43.3492C23.2226 39.6672 26.2066 36.6824 29.8894 36.6824C33.5705 36.6824 36.5562 39.6673 36.5562 43.3492V45.2413Z" fill="#377DFF"/>
<path d="M37.1154 30.9767C37.1154 27.7393 35.2153 25.0719 31.5858 24.4763C31.0861 24.6425 30.5535 24.7359 29.9996 24.7359C29.4439 24.7359 28.9112 24.6426 28.4115 24.4763C24.7821 25.072 22.8829 27.7394 22.8829 30.9767H29.9996H37.1154Z" fill="#377DFF"/>
<path d="M29.9997 23.5818C32.1496 23.5818 33.8941 21.8383 33.8941 19.6874V18.5822C33.8941 16.4304 32.1496 14.6869 29.9997 14.6869C27.848 14.6869 26.1035 16.4304 26.1035 18.5822V19.6874C26.1035 21.8381 27.848 23.5818 29.9997 23.5818Z" fill="#377DFF"/>
</g>
<defs>
<clipPath id="clip0_34_119">
<rect width="60" height="60" fill="white"/>
</clipPath>
</defs>
</svg>
