<svg width="60" height="60" viewBox="0 0 60 60" fill="none" xmlns="http://www.w3.org/2000/svg">
<path d="M3.75 11.25C1.67893 11.25 0 12.9289 0 15C0 17.0711 1.67894 18.75 3.75 18.75H33.75C35.821 18.75 37.5 17.0711 37.5 15C37.5 12.9289 35.821 11.25 33.75 11.25H3.75Z" fill="#377DFF"/>
<path d="M3.75 26.25C1.67893 26.25 0 27.9289 0 30C0 32.0711 1.67893 33.75 3.75 33.75H26.25C28.3211 33.75 30 32.0711 30 30C30 27.9289 28.3211 26.25 26.25 26.25H3.75Z" fill="#377DFF"/>
<path d="M0 45C0 42.9289 1.67893 41.25 3.75 41.25H33.75C35.821 41.25 37.5 42.9289 37.5 45C37.5 47.0711 35.821 48.75 33.75 48.75H3.75C1.67894 48.75 0 47.0711 0 45Z" fill="#377DFF"/>
<path d="M58.9013 27.0267C60.3656 25.5622 60.3656 23.1878 58.9013 21.7233C57.4369 20.2589 55.0624 20.2589 53.598 21.7233L44.9996 30.3217L42.0431 27.3653C40.5788 25.9008 38.2043 25.9008 36.7398 27.3653C35.2754 28.8297 35.2754 31.2041 36.7398 32.6686L42.348 38.2766C43.8124 39.741 46.1869 39.741 47.6513 38.2766L58.9013 27.0267Z" fill="#377DFF"/>
</svg>
