<svg width="281" height="188" viewBox="0 0 281 188" fill="none" xmlns="http://www.w3.org/2000/svg">
<g filter="url(#filter0_f_462_32)">
<path d="M256.337 47.3092C255.455 47.9733 254.201 47.7962 253.537 46.9136L247.759 39.2355C247.095 38.3529 247.272 37.099 248.155 36.4349L253.107 32.709C253.482 32.4265 254.015 32.5019 254.298 32.8772V32.8772L261.014 41.2028C261.724 42.0831 261.564 43.3766 260.66 44.0566L256.337 47.3092Z" fill="#9CBE46"/>
</g>
<g filter="url(#filter1_f_462_32)">
<path d="M203.403 50.2506C202.52 50.9147 201.266 50.7376 200.602 49.855L194.825 42.177C194.161 41.2943 194.338 40.0404 195.221 39.3763L200.172 35.6504C200.548 35.368 201.081 35.4433 201.363 35.8186V35.8186L208.08 44.1442C208.79 45.0245 208.629 46.318 207.725 46.998L203.403 50.2506Z" fill="#9CBE46"/>
</g>
<g filter="url(#filter2_f_462_32)">
<path d="M167.227 36.4015C166.141 36.6059 165.096 35.8915 164.891 34.806L163.114 25.363C162.91 24.2775 163.624 23.2319 164.709 23.0275L170.8 21.8813C171.261 21.7944 171.706 22.0982 171.793 22.5598V22.5598L174.125 32.9994C174.372 34.1032 173.655 35.1917 172.543 35.4009L167.227 36.4015Z" fill="#9CBE46"/>
</g>
<g filter="url(#filter3_f_462_32)">
<path d="M231.457 86.0919C230.582 87.0417 229.05 86.9255 228.328 85.8547L223.952 79.363C223.417 78.5693 223.519 77.5077 224.196 76.8309L225.971 75.0555L228.248 72.2951C228.524 71.9607 229.04 71.9722 229.301 72.3186V72.3186L234.658 80.3644C235.169 81.1321 235.089 82.1497 234.464 82.828L231.457 86.0919Z" fill="#9CBE46"/>
</g>
<g filter="url(#filter4_f_462_32)">
<path d="M175.582 183.139C174.707 184.089 173.174 183.972 172.453 182.902L168.077 176.41C167.541 175.616 167.644 174.555 168.321 173.878L170.096 172.102L172.373 169.342C172.649 169.008 173.165 169.019 173.426 169.366V169.366L178.783 177.411C179.294 178.179 179.214 179.197 178.589 179.875L175.582 183.139Z" fill="#9CBE46"/>
</g>
<g filter="url(#filter5_f_462_32)">
<path d="M221.164 64.0353C220.289 64.9851 218.757 64.8689 218.035 63.7981L213.659 57.3064C213.124 56.5126 213.226 55.4511 213.903 54.7742L215.678 52.9989L217.955 50.2385C218.231 49.904 218.747 49.9155 219.008 50.262V50.262L224.365 58.3078C224.876 59.0754 224.796 60.0931 224.171 60.7713L221.164 64.0353Z" fill="#9CBE46"/>
</g>
<g filter="url(#filter6_f_462_32)">
<path d="M213.286 136.207C212.172 135.553 211.96 134.031 212.854 133.098L218.269 127.444C218.931 126.753 219.99 126.628 220.795 127.146L222.907 128.504L226.088 130.144C226.473 130.342 226.571 130.849 226.288 131.177V131.177L219.562 138.119C218.92 138.782 217.909 138.919 217.113 138.453L213.286 136.207Z" fill="#9CBE46"/>
</g>
<path d="M84.0776 64.2589C109.474 32.1154 125.022 18.5182 158.333 12.7949V57.6421C137.155 62.7946 126.68 71.4861 109.074 91.4614C126.548 117.902 138.953 124.77 162.744 131.897L158.333 178.215C131.758 172.008 113.521 161.557 81.872 126.751C50.4576 159.554 34.5889 172.976 1 178.215V135.573C27.1628 128.787 39.2991 119.209 56.8752 91.4614C36.5967 69.5671 24.7242 60.1174 1 57.6421V12.7949C43.1569 16.3568 59.7099 30.4185 84.0776 64.2589Z" fill="#2FBCF3" stroke="#31A9DE"/>
<g filter="url(#filter7_f_462_32)">
<rect x="179.654" y="134.104" width="26.4672" height="19.1152" rx="2" fill="#9CBE46"/>
</g>
<g filter="url(#filter8_f_462_32)">
<path d="M191.417 164.777C191.417 163.673 192.312 162.777 193.417 162.777H212.943C214.048 162.777 214.943 163.673 214.943 164.777V176.746C214.943 177.558 214.285 178.217 213.473 178.217V178.217L193.483 178.883C192.353 178.921 191.417 178.015 191.417 176.884V164.777Z" fill="#9CBE46"/>
</g>
<g filter="url(#filter9_f_462_32)">
<path d="M244.672 96.1071C245.765 96.2615 246.527 97.2734 246.372 98.3671L243.642 117.702C243.488 118.795 242.476 119.557 241.382 119.402L229.531 117.729C228.727 117.615 228.167 116.871 228.28 116.067V116.067L230.416 96.1812C230.536 95.057 231.564 94.2562 232.684 94.4143L244.672 96.1071Z" fill="#9CBE46"/>
</g>
<g filter="url(#filter10_f_462_32)">
<path d="M213.514 18.0531C214.2 18.9191 214.054 20.1769 213.188 20.8626L197.879 32.9838C197.013 33.6695 195.755 33.5233 195.069 32.6573L187.64 23.2737C187.136 22.637 187.243 21.7123 187.88 21.2082V21.2082L203.138 8.27721C204 7.54618 205.297 7.675 205.999 8.56146L213.514 18.0531Z" fill="#9CBE46"/>
</g>
<g filter="url(#filter11_f_462_32)">
<path d="M242.755 84.1586C241.695 84.4701 240.583 83.8636 240.272 82.8038L233.887 61.0854C233.576 60.0256 234.182 58.914 235.242 58.6025L248.52 54.6993C249.403 54.44 250.328 54.9449 250.587 55.827V55.827L257.781 77.5874C258.136 78.661 257.531 79.8151 256.446 80.134L242.755 84.1586Z" fill="#9CBE46"/>
</g>
<g filter="url(#filter12_f_462_32)">
<path d="M221.43 19.2502C222.266 18.5284 223.529 18.6212 224.251 19.4574L239.042 36.5939C239.764 37.43 239.671 38.693 238.835 39.4147L228.358 48.458C227.662 49.0588 226.611 48.9815 226.01 48.2855V48.2855L210.464 31.4454C209.697 30.6145 209.771 29.3136 210.627 28.5747L221.43 19.2502Z" fill="#9CBE46"/>
</g>
<g filter="url(#filter13_f_462_32)">
<path d="M186.759 51.772C186.785 52.8763 185.911 53.7925 184.807 53.8184L170.896 54.1451C169.792 54.171 168.876 53.2969 168.85 52.1926L168.664 44.2928C168.65 43.6746 169.139 43.1616 169.757 43.1471V43.1471L184.475 42.341C185.602 42.2792 186.557 43.1623 186.584 44.291L186.759 51.772Z" fill="#9CBE46"/>
</g>
<g filter="url(#filter14_f_462_32)">
<path d="M180.878 162.053C180.904 163.158 180.03 164.074 178.925 164.1L165.015 164.426C163.91 164.452 162.994 163.578 162.968 162.474L162.783 154.574C162.768 153.956 163.258 153.443 163.876 153.428V153.428L178.593 152.622C179.721 152.56 180.676 153.444 180.702 154.572L180.878 162.053Z" fill="#9CBE46"/>
</g>
<g filter="url(#filter15_f_462_32)">
<path d="M272.043 101.766C272.069 102.87 271.194 103.787 270.09 103.813L256.179 104.139C255.075 104.165 254.159 103.291 254.133 102.187L253.947 94.2869C253.933 93.6687 254.422 93.1558 255.041 93.1413V93.1413L269.758 92.3351C270.885 92.2734 271.84 93.1564 271.867 94.2852L272.043 101.766Z" fill="#9CBE46"/>
</g>
<g filter="url(#filter16_f_462_32)">
<path d="M168.644 10.578C168.634 9.47352 169.521 8.56986 170.626 8.55966L184.54 8.43121C185.644 8.42101 186.548 9.30814 186.558 10.4127L186.631 18.3144C186.637 18.9327 186.14 19.4386 185.522 19.4443V19.4443L170.794 20.0407C169.666 20.0864 168.724 19.1898 168.713 18.0608L168.644 10.578Z" fill="#9CBE46"/>
</g>
<g filter="url(#filter17_f_462_32)">
<path d="M216.579 5.83657C217.134 4.8597 218.385 4.53169 219.348 5.1104L242.921 19.2746C243.755 19.7763 244.108 20.8064 243.754 21.7141L243.186 23.1749C242.802 24.163 241.636 24.5883 240.706 24.08V24.08L227.863 15.9834C227.777 15.9295 227.688 15.8821 227.595 15.8417L216.247 10.8968C215.158 10.4221 214.72 9.10816 215.307 8.07514L216.579 5.83657Z" fill="#9CBE46"/>
</g>
<g filter="url(#filter18_f_462_32)">
<path d="M265.843 57.6531C266.916 57.3196 268.053 57.9352 268.361 59.0159L275.882 85.4681C276.149 86.405 275.702 87.3975 274.823 87.8186L273.41 88.4962C272.454 88.9545 271.313 88.4683 270.981 87.4611V87.4611L267.142 72.7722C267.117 72.6744 267.084 72.5787 267.044 72.4858L262.142 61.1191C261.671 60.0281 262.25 58.7699 263.385 58.4172L265.843 57.6531Z" fill="#9CBE46"/>
</g>
<g filter="url(#filter19_f_462_32)">
<path d="M260.741 147.074C261.798 147.544 262.237 148.81 261.698 149.833L255.552 161.506C255.09 162.384 254.054 162.79 253.118 162.461L250.849 161.661C250.294 161.466 250.021 160.84 250.255 160.299V160.299L254.314 153.271C254.406 153.111 254.476 152.939 254.521 152.759L255.856 147.465C256.159 146.261 257.474 145.622 258.608 146.126L260.741 147.074Z" fill="#9CBE46"/>
</g>
<g filter="url(#filter20_f_462_32)">
<path d="M226.996 171.717C226.43 170.769 226.74 169.541 227.688 168.975L236.307 163.829C237.255 163.263 238.483 163.573 239.049 164.521L241.508 168.64C241.757 169.056 241.621 169.595 241.205 169.843V169.843L231.828 175.801C230.878 176.405 229.616 176.105 229.039 175.138L226.996 171.717Z" fill="#9CBE46"/>
</g>
<g filter="url(#filter21_f_462_32)">
<path d="M223.783 152.121L225.972 142.754L236.999 133.197L245.977 135.884L249.653 144.706L242.146 154.516L234.949 158.675L223.783 152.121Z" fill="#9CBE46"/>
</g>
<g filter="url(#filter22_f_462_32)">
<path d="M255.013 136.58L253.414 127.093L259.896 114.019L269.214 113.031L276.012 119.749L272.876 131.698L267.843 138.313L255.013 136.58Z" fill="#9CBE46"/>
</g>
<defs>
<filter id="filter0_f_462_32" x="243.357" y="28.5371" width="22.1003" height="23.1738" filterUnits="userSpaceOnUse" color-interpolation-filters="sRGB">
<feFlood flood-opacity="0" result="BackgroundImageFix"/>
<feBlend mode="normal" in="SourceGraphic" in2="BackgroundImageFix" result="shape"/>
<feGaussianBlur stdDeviation="2" result="effect1_foregroundBlur_462_32"/>
</filter>
<filter id="filter1_f_462_32" x="190.423" y="31.4785" width="22.1003" height="23.1738" filterUnits="userSpaceOnUse" color-interpolation-filters="sRGB">
<feFlood flood-opacity="0" result="BackgroundImageFix"/>
<feBlend mode="normal" in="SourceGraphic" in2="BackgroundImageFix" result="shape"/>
<feGaussianBlur stdDeviation="2" result="effect1_foregroundBlur_462_32"/>
</filter>
<filter id="filter2_f_462_32" x="159.079" y="17.8672" width="19.0945" height="22.5684" filterUnits="userSpaceOnUse" color-interpolation-filters="sRGB">
<feFlood flood-opacity="0" result="BackgroundImageFix"/>
<feBlend mode="normal" in="SourceGraphic" in2="BackgroundImageFix" result="shape"/>
<feGaussianBlur stdDeviation="2" result="effect1_foregroundBlur_462_32"/>
</filter>
<filter id="filter3_f_462_32" x="219.61" y="68.0508" width="19.3833" height="22.6855" filterUnits="userSpaceOnUse" color-interpolation-filters="sRGB">
<feFlood flood-opacity="0" result="BackgroundImageFix"/>
<feBlend mode="normal" in="SourceGraphic" in2="BackgroundImageFix" result="shape"/>
<feGaussianBlur stdDeviation="2" result="effect1_foregroundBlur_462_32"/>
</filter>
<filter id="filter4_f_462_32" x="163.735" y="165.098" width="19.3833" height="22.6855" filterUnits="userSpaceOnUse" color-interpolation-filters="sRGB">
<feFlood flood-opacity="0" result="BackgroundImageFix"/>
<feBlend mode="normal" in="SourceGraphic" in2="BackgroundImageFix" result="shape"/>
<feGaussianBlur stdDeviation="2" result="effect1_foregroundBlur_462_32"/>
</filter>
<filter id="filter5_f_462_32" x="209.317" y="45.9941" width="19.3833" height="22.6855" filterUnits="userSpaceOnUse" color-interpolation-filters="sRGB">
<feFlood flood-opacity="0" result="BackgroundImageFix"/>
<feBlend mode="normal" in="SourceGraphic" in2="BackgroundImageFix" result="shape"/>
<feGaussianBlur stdDeviation="2" result="effect1_foregroundBlur_462_32"/>
</filter>
<filter id="filter6_f_462_32" x="208.298" y="122.828" width="22.1533" height="19.9004" filterUnits="userSpaceOnUse" color-interpolation-filters="sRGB">
<feFlood flood-opacity="0" result="BackgroundImageFix"/>
<feBlend mode="normal" in="SourceGraphic" in2="BackgroundImageFix" result="shape"/>
<feGaussianBlur stdDeviation="2" result="effect1_foregroundBlur_462_32"/>
</filter>
<filter id="filter7_f_462_32" x="175.654" y="130.104" width="34.4673" height="27.1152" filterUnits="userSpaceOnUse" color-interpolation-filters="sRGB">
<feFlood flood-opacity="0" result="BackgroundImageFix"/>
<feBlend mode="normal" in="SourceGraphic" in2="BackgroundImageFix" result="shape"/>
<feGaussianBlur stdDeviation="2" result="effect1_foregroundBlur_462_32"/>
</filter>
<filter id="filter8_f_462_32" x="187.417" y="158.777" width="31.5264" height="24.1074" filterUnits="userSpaceOnUse" color-interpolation-filters="sRGB">
<feFlood flood-opacity="0" result="BackgroundImageFix"/>
<feBlend mode="normal" in="SourceGraphic" in2="BackgroundImageFix" result="shape"/>
<feGaussianBlur stdDeviation="2" result="effect1_foregroundBlur_462_32"/>
</filter>
<filter id="filter9_f_462_32" x="224.266" y="90.3945" width="26.1262" height="33.0273" filterUnits="userSpaceOnUse" color-interpolation-filters="sRGB">
<feFlood flood-opacity="0" result="BackgroundImageFix"/>
<feBlend mode="normal" in="SourceGraphic" in2="BackgroundImageFix" result="shape"/>
<feGaussianBlur stdDeviation="2" result="effect1_foregroundBlur_462_32"/>
</filter>
<filter id="filter10_f_462_32" x="183.322" y="3.80273" width="34.6243" height="33.6133" filterUnits="userSpaceOnUse" color-interpolation-filters="sRGB">
<feFlood flood-opacity="0" result="BackgroundImageFix"/>
<feBlend mode="normal" in="SourceGraphic" in2="BackgroundImageFix" result="shape"/>
<feGaussianBlur stdDeviation="2" result="effect1_foregroundBlur_462_32"/>
</filter>
<filter id="filter11_f_462_32" x="229.806" y="50.6309" width="32.0767" height="37.6094" filterUnits="userSpaceOnUse" color-interpolation-filters="sRGB">
<feFlood flood-opacity="0" result="BackgroundImageFix"/>
<feBlend mode="normal" in="SourceGraphic" in2="BackgroundImageFix" result="shape"/>
<feGaussianBlur stdDeviation="2" result="effect1_foregroundBlur_462_32"/>
</filter>
<filter id="filter12_f_462_32" x="205.934" y="14.7637" width="37.5945" height="38.0996" filterUnits="userSpaceOnUse" color-interpolation-filters="sRGB">
<feFlood flood-opacity="0" result="BackgroundImageFix"/>
<feBlend mode="normal" in="SourceGraphic" in2="BackgroundImageFix" result="shape"/>
<feGaussianBlur stdDeviation="2" result="effect1_foregroundBlur_462_32"/>
</filter>
<filter id="filter13_f_462_32" x="164.664" y="38.3379" width="26.0959" height="19.8086" filterUnits="userSpaceOnUse" color-interpolation-filters="sRGB">
<feFlood flood-opacity="0" result="BackgroundImageFix"/>
<feBlend mode="normal" in="SourceGraphic" in2="BackgroundImageFix" result="shape"/>
<feGaussianBlur stdDeviation="2" result="effect1_foregroundBlur_462_32"/>
</filter>
<filter id="filter14_f_462_32" x="158.782" y="148.619" width="26.0959" height="19.8086" filterUnits="userSpaceOnUse" color-interpolation-filters="sRGB">
<feFlood flood-opacity="0" result="BackgroundImageFix"/>
<feBlend mode="normal" in="SourceGraphic" in2="BackgroundImageFix" result="shape"/>
<feGaussianBlur stdDeviation="2" result="effect1_foregroundBlur_462_32"/>
</filter>
<filter id="filter15_f_462_32" x="249.947" y="88.332" width="26.0959" height="19.8086" filterUnits="userSpaceOnUse" color-interpolation-filters="sRGB">
<feFlood flood-opacity="0" result="BackgroundImageFix"/>
<feBlend mode="normal" in="SourceGraphic" in2="BackgroundImageFix" result="shape"/>
<feGaussianBlur stdDeviation="2" result="effect1_foregroundBlur_462_32"/>
</filter>
<filter id="filter16_f_462_32" x="164.644" y="4.43164" width="25.9871" height="19.6113" filterUnits="userSpaceOnUse" color-interpolation-filters="sRGB">
<feFlood flood-opacity="0" result="BackgroundImageFix"/>
<feBlend mode="normal" in="SourceGraphic" in2="BackgroundImageFix" result="shape"/>
<feGaussianBlur stdDeviation="2" result="effect1_foregroundBlur_462_32"/>
</filter>
<filter id="filter17_f_462_32" x="211.045" y="0.824219" width="36.8455" height="27.4707" filterUnits="userSpaceOnUse" color-interpolation-filters="sRGB">
<feFlood flood-opacity="0" result="BackgroundImageFix"/>
<feBlend mode="normal" in="SourceGraphic" in2="BackgroundImageFix" result="shape"/>
<feGaussianBlur stdDeviation="2" result="effect1_foregroundBlur_462_32"/>
</filter>
<filter id="filter18_f_462_32" x="257.977" y="53.5625" width="21.9817" height="39.1074" filterUnits="userSpaceOnUse" color-interpolation-filters="sRGB">
<feFlood flood-opacity="0" result="BackgroundImageFix"/>
<feBlend mode="normal" in="SourceGraphic" in2="BackgroundImageFix" result="shape"/>
<feGaussianBlur stdDeviation="2" result="effect1_foregroundBlur_462_32"/>
</filter>
<filter id="filter19_f_462_32" x="246.171" y="141.953" width="19.7578" height="24.6211" filterUnits="userSpaceOnUse" color-interpolation-filters="sRGB">
<feFlood flood-opacity="0" result="BackgroundImageFix"/>
<feBlend mode="normal" in="SourceGraphic" in2="BackgroundImageFix" result="shape"/>
<feGaussianBlur stdDeviation="2" result="effect1_foregroundBlur_462_32"/>
</filter>
<filter id="filter20_f_462_32" x="222.713" y="159.547" width="22.9192" height="20.5664" filterUnits="userSpaceOnUse" color-interpolation-filters="sRGB">
<feFlood flood-opacity="0" result="BackgroundImageFix"/>
<feBlend mode="normal" in="SourceGraphic" in2="BackgroundImageFix" result="shape"/>
<feGaussianBlur stdDeviation="2" result="effect1_foregroundBlur_462_32"/>
</filter>
<filter id="filter21_f_462_32" x="219.783" y="129.197" width="33.8699" height="33.4785" filterUnits="userSpaceOnUse" color-interpolation-filters="sRGB">
<feFlood flood-opacity="0" result="BackgroundImageFix"/>
<feBlend mode="normal" in="SourceGraphic" in2="BackgroundImageFix" result="shape"/>
<feGaussianBlur stdDeviation="2" result="effect1_foregroundBlur_462_32"/>
</filter>
<filter id="filter22_f_462_32" x="249.414" y="109.031" width="30.5979" height="33.2812" filterUnits="userSpaceOnUse" color-interpolation-filters="sRGB">
<feFlood flood-opacity="0" result="BackgroundImageFix"/>
<feBlend mode="normal" in="SourceGraphic" in2="BackgroundImageFix" result="shape"/>
<feGaussianBlur stdDeviation="2" result="effect1_foregroundBlur_462_32"/>
</filter>
</defs>
</svg>
