<svg width="1098" height="515" viewBox="0 0 1098 515" fill="none" xmlns="http://www.w3.org/2000/svg">
<path d="M237.369 310V172.214H257.053V232.053L312.167 172.214H336.772L285.594 226.935L337.756 310H313.742L271.619 242.288L257.053 257.838V310H237.369ZM393.522 312.362C384.074 312.362 375.676 310.197 368.327 305.866C360.979 301.536 355.205 295.5 351.006 287.757C346.938 280.015 344.904 271.026 344.904 260.791C344.904 250.293 346.938 241.173 351.006 233.43C355.205 225.557 360.979 219.455 368.327 215.125C375.676 210.663 384.205 208.432 393.916 208.432C403.627 208.432 411.96 210.597 418.914 214.928C425.869 219.258 431.25 225.032 435.055 232.249C438.861 239.335 440.763 247.209 440.763 255.87C440.763 257.182 440.698 258.626 440.567 260.2C440.567 261.644 440.501 263.284 440.37 265.121H359.273V251.146H421.08C420.686 242.879 417.93 236.449 412.812 231.856C407.695 227.132 401.33 224.77 393.719 224.77C388.339 224.77 383.418 226.016 378.956 228.509C374.495 230.871 370.886 234.415 368.13 239.139C365.506 243.732 364.194 249.571 364.194 256.657V262.169C364.194 269.517 365.506 275.75 368.13 280.868C370.886 285.855 374.495 289.66 378.956 292.285C383.418 294.778 388.273 296.025 393.522 296.025C399.821 296.025 405.005 294.647 409.073 291.891C413.141 289.135 416.159 285.395 418.127 280.671H437.811C436.105 286.708 433.218 292.153 429.15 297.009C425.082 301.733 420.03 305.473 413.993 308.228C408.088 310.984 401.265 312.362 393.522 312.362ZM469.82 353.304L494.031 298.977H488.323L449.152 210.794H470.41L501.511 282.836L532.808 210.794H553.476L490.488 353.304H469.82ZM616.914 312.362C606.81 312.362 597.952 310.591 590.341 307.047C582.73 303.373 576.825 298.255 572.626 291.694C568.427 285.133 566.327 277.456 566.327 268.664H586.995C587.126 273.651 588.307 278.244 590.538 282.443C592.9 286.511 596.246 289.791 600.577 292.285C605.038 294.647 610.484 295.828 616.914 295.828C622.426 295.828 627.15 294.909 631.086 293.072C635.154 291.235 638.238 288.742 640.338 285.592C642.437 282.312 643.487 278.572 643.487 274.372C643.487 269.517 642.372 265.515 640.141 262.365C637.91 259.216 634.892 256.657 631.086 254.689C627.412 252.589 623.082 250.752 618.095 249.177C613.24 247.603 608.122 245.897 602.742 244.06C591.85 240.517 583.714 235.924 578.334 230.281C573.085 224.638 570.461 217.29 570.461 208.235C570.461 200.493 572.298 193.8 575.972 188.158C579.646 182.384 584.764 177.922 591.325 174.773C598.018 171.492 605.891 169.852 614.946 169.852C623.869 169.852 631.677 171.492 638.369 174.773C645.062 178.054 650.311 182.581 654.116 188.355C657.922 194.129 659.825 200.887 659.825 208.629H638.96C638.96 205.086 638.041 201.608 636.204 198.197C634.367 194.785 631.611 192.029 627.937 189.929C624.263 187.699 619.735 186.583 614.355 186.583C609.894 186.452 605.891 187.174 602.348 188.748C598.805 190.323 596.049 192.619 594.081 195.638C592.113 198.656 591.128 202.264 591.128 206.464C591.128 210.663 591.981 214.075 593.687 216.699C595.524 219.192 598.149 221.358 601.561 223.195C604.973 225.032 608.909 226.738 613.371 228.313C617.964 229.756 623.016 231.396 628.527 233.234C635.351 235.464 641.388 238.22 646.637 241.501C652.017 244.65 656.216 248.784 659.234 253.901C662.383 258.888 663.958 265.318 663.958 273.191C663.958 280.015 662.187 286.38 658.644 292.285C655.101 298.19 649.852 303.045 642.897 306.851C635.942 310.525 627.281 312.362 616.914 312.362ZM727.323 310C721.024 310 715.578 309.016 710.985 307.047C706.392 305.079 702.849 301.798 700.356 297.206C697.863 292.613 696.616 286.38 696.616 278.506V227.525H679.491V210.794H696.616L698.978 185.993H716.3V210.794H744.448V227.525H716.3V278.703C716.3 284.346 717.481 288.217 719.843 290.316C722.205 292.285 726.273 293.269 732.047 293.269H743.463V310H727.323ZM808.735 312.362C799.418 312.362 791.02 310.197 783.54 305.866C776.191 301.536 770.352 295.5 766.021 287.757C761.822 279.884 759.722 270.829 759.722 260.594C759.722 250.096 761.888 240.976 766.218 233.234C770.549 225.36 776.454 219.258 783.933 214.928C791.413 210.597 799.812 208.432 809.129 208.432C818.577 208.432 826.975 210.597 834.324 214.928C841.672 219.258 847.446 225.294 851.645 233.037C855.976 240.779 858.141 249.899 858.141 260.397C858.141 270.895 855.976 280.015 851.645 287.757C847.446 295.5 841.607 301.536 834.127 305.866C826.647 310.197 818.183 312.362 808.735 312.362ZM808.735 295.434C814.115 295.434 818.97 294.122 823.301 291.497C827.762 288.873 831.306 285.002 833.93 279.884C836.686 274.635 838.064 268.139 838.064 260.397C838.064 252.655 836.751 246.225 834.127 241.107C831.502 235.858 827.959 231.921 823.498 229.297C819.167 226.672 814.378 225.36 809.129 225.36C803.88 225.36 799.024 226.672 794.563 229.297C790.101 231.921 786.492 235.858 783.737 241.107C781.112 246.225 779.8 252.655 779.8 260.397C779.8 268.139 781.112 274.635 783.737 279.884C786.492 285.002 790.035 288.873 794.366 291.497C798.827 294.122 803.617 295.434 808.735 295.434ZM881.296 310V210.794H899.011L900.192 227.722C903.341 221.817 907.803 217.158 913.577 213.747C919.351 210.204 925.978 208.432 933.457 208.432C941.331 208.432 948.089 210.007 953.732 213.156C959.374 216.306 963.77 221.095 966.92 227.525C970.069 233.824 971.644 241.763 971.644 251.343V310H951.96V253.311C951.96 244.125 949.926 237.17 945.858 232.446C941.79 227.722 935.885 225.36 928.143 225.36C923.025 225.36 918.432 226.607 914.364 229.1C910.296 231.462 907.016 235.005 904.522 239.729C902.16 244.453 900.979 250.227 900.979 257.051V310H881.296ZM1041.7 312.362C1032.25 312.362 1023.85 310.197 1016.51 305.866C1009.16 301.536 1003.38 295.5 999.184 287.757C995.116 280.015 993.082 271.026 993.082 260.791C993.082 250.293 995.116 241.173 999.184 233.43C1003.38 225.557 1009.16 219.455 1016.51 215.125C1023.85 210.663 1032.38 208.432 1042.09 208.432C1051.81 208.432 1060.14 210.597 1067.09 214.928C1074.05 219.258 1079.43 225.032 1083.23 232.249C1087.04 239.335 1088.94 247.209 1088.94 255.87C1088.94 257.182 1088.88 258.626 1088.74 260.2C1088.74 261.644 1088.68 263.284 1088.55 265.121H1007.45V251.146H1069.26C1068.86 242.879 1066.11 236.449 1060.99 231.856C1055.87 227.132 1049.51 224.77 1041.9 224.77C1036.52 224.77 1031.6 226.016 1027.13 228.509C1022.67 230.871 1019.06 234.415 1016.31 239.139C1013.68 243.732 1012.37 249.571 1012.37 256.657V262.169C1012.37 269.517 1013.68 275.75 1016.31 280.868C1019.06 285.855 1022.67 289.66 1027.13 292.285C1031.6 294.778 1036.45 296.025 1041.7 296.025C1048 296.025 1053.18 294.647 1057.25 291.891C1061.32 289.135 1064.34 285.395 1066.31 280.671H1085.99C1084.28 286.708 1081.4 292.153 1077.33 297.009C1073.26 301.733 1068.21 305.473 1062.17 308.228C1056.27 310.984 1049.44 312.362 1041.7 312.362Z" fill="black"/>
<g clip-path="url(#clip0_19_989)">
<path d="M183.743 20.3014C44.0427 166.952 70.1588 272.594 101.945 308.745L0 205.456L183.743 20.3014C190.109 13.6186 196.82 6.85052 203.89 0L183.743 20.3014Z" fill="#3C83FF"/>
<path d="M20.1467 493.9C159.847 347.249 133.731 241.607 101.945 205.456L203.89 308.745L20.1467 493.9C13.7805 500.582 7.07001 507.35 0 514.201L20.1467 493.9Z" fill="#3C83FF"/>
</g>
<defs>
<clipPath id="clip0_19_989">
<rect width="203.89" height="514.201" fill="white"/>
</clipPath>
</defs>
</svg>
