<svg width="30" height="34" viewBox="0 0 30 34" fill="none" xmlns="http://www.w3.org/2000/svg">
<path d="M25.6834 23.1503C22.0726 21.7703 19.9114 20.3641 19.9114 20.3641L17.1338 29.1567L16.7519 30.3459L15.5107 26.8132C18.3751 22.8205 15.2937 22.6296 14.7643 22.6296H14.7556H14.7469H14.7382H14.7296C14.2001 22.6296 11.1188 22.8205 13.9831 26.8132L12.7419 30.3459L12.36 29.1567L9.58246 20.3641C9.58246 20.3641 7.4212 21.7703 3.81042 23.1503C-0.164915 24.5912 0.0867976 27.8635 0 34H14.7296H14.7643H29.4938C29.4157 27.8635 29.6587 24.5912 25.6834 23.1503Z" fill="#377DFF"/>
<path d="M8.48872 14.783C8.80987 16.8488 10.3983 19.4788 13.0196 20.3988C14.0958 20.7807 15.2763 20.7807 16.3439 20.3901C18.9218 19.4614 20.571 16.8401 20.8834 14.783C21.2306 14.757 21.6906 14.2709 22.1767 12.535C22.845 10.1567 22.1333 9.80951 21.5344 9.86158C21.6472 9.53175 21.734 9.2106 21.7948 8.88077C22.819 2.72682 19.7898 2.50983 19.7898 2.50983C19.7898 2.50983 19.2863 1.54637 17.967 0.817274C17.0817 0.296489 15.8492 -0.11146 14.2174 0.0274161C13.6879 0.0534554 13.1932 0.157612 12.7244 0.313848C12.1255 0.513483 11.5787 0.808595 11.084 1.15578C10.4764 1.53769 9.90352 2.01508 9.39142 2.55323C8.59288 3.36912 7.87246 4.43673 7.56867 5.75606C7.30828 6.74555 7.36903 7.77844 7.58603 8.88945C7.64679 9.2106 7.73358 9.54043 7.84642 9.87026C7.23884 9.80951 6.5271 10.1654 7.20412 12.5436C7.69019 14.2622 8.14153 14.757 8.48872 14.783Z" fill="#377DFF"/>
</svg>
