<svg width="76" height="31" viewBox="0 0 76 31" fill="none" xmlns="http://www.w3.org/2000/svg">
<path d="M32.742 30.247C31.4178 30.247 31.262 29.3855 31.262 29.0723V20.8494L24.485 29.6205C24.0955 30.0904 23.6281 30.3253 23.0828 30.3253C22.5375 30.3253 22.0702 30.0904 21.6807 29.6205L14.9815 20.8494V29.0723C14.9815 29.4639 14.8258 30.247 13.5015 30.247C12.1773 30.247 12.0994 29.3855 12.0994 29.0723V17.0121C12.0994 16.2289 12.6446 15.759 13.5794 15.759C14.5142 15.759 14.67 15.994 15.0594 16.4639L23.0828 26.9578L31.1841 16.4639C31.4957 16.0723 31.8852 15.6807 32.6641 15.6807C33.4431 15.6807 34.1442 16.1506 34.1442 16.9337V28.994C34.1442 29.7771 33.5989 30.1687 32.6641 30.1687L32.742 30.247Z" fill="#003B53"/>
<path d="M43.7255 30.247C42.4012 30.247 42.2454 29.3855 42.2454 29.0723V18.1867H37.2601C36.0137 18.1867 35.8579 17.3253 35.8579 17.012C35.8579 16.2289 36.4032 15.8373 37.2601 15.8373H50.0351C50.892 15.8373 51.4373 16.3072 51.4373 17.012C51.4373 17.7169 51.2815 18.1867 50.0351 18.1867H45.1276V29.0723C45.1276 29.4638 44.9718 30.247 43.7255 30.247Z" fill="#003B53"/>
<path d="M73.8714 30.247C72.5472 30.247 72.3914 29.3855 72.3914 29.0723V20.8494L65.6144 29.6205C65.2249 30.0904 64.7575 30.3253 64.2122 30.3253C63.6669 30.3253 63.1995 30.0904 62.8101 29.6205L56.1109 20.8494V29.0723C56.1109 29.4639 55.9551 30.247 54.6309 30.247C53.3067 30.247 53.2288 29.3855 53.2288 29.0723V17.0121C53.2288 16.2289 53.774 15.759 54.7088 15.759C55.6436 15.759 55.7994 15.994 56.1888 16.4639L64.2122 26.9578L72.3135 16.4639C72.6251 16.0723 73.0145 15.6807 73.7935 15.6807C74.5725 15.6807 75.2735 16.1506 75.2735 16.9337V28.994C75.2735 29.7771 74.7283 30.1687 73.7935 30.1687L73.8714 30.247Z" fill="#003B53"/>
<path d="M6.6466 6.75305L3.37494 12.3916L0.103271 6.75305H6.6466Z" fill="#8E3C97"/>
<path d="M9.91833 12.3916H3.375L6.64667 6.75305L9.91833 12.3916Z" fill="#AF7EB8"/>
<path d="M6.64667 18.1085L3.375 12.3916H9.91833L6.64667 18.1085Z" fill="#414190"/>
<path d="M0.103271 18.1085L3.37494 12.3916L6.6466 18.1085H0.103271Z" fill="#615CA0"/>
<path d="M10.4636 12L13.7353 6.36145L17.007 12H10.4636Z" fill="#BCCE39"/>
<path d="M7.19189 6.36145H13.7352L10.4636 12L7.19189 6.36145Z" fill="#CED976"/>
<path d="M10.4636 0.644592L13.7352 6.36146H7.19189L10.4636 0.644592Z" fill="#EF812A"/>
<path d="M17.007 0.644592L13.7353 6.36146L10.4636 0.644592H17.007Z" fill="#F6AC73"/>
</svg>
