<svg width="160" height="39" viewBox="0 0 160 39" fill="none" xmlns="http://www.w3.org/2000/svg">
<path d="M34.742 31.2469C33.4178 31.2469 33.262 30.3855 33.262 30.0722V21.8493L26.485 30.6204C26.0955 31.0903 25.6281 31.3252 25.0828 31.3252C24.5375 31.3252 24.0702 31.0903 23.6807 30.6204L16.9815 21.8493V30.0722C16.9815 30.4638 16.8258 31.2469 15.5015 31.2469C14.1773 31.2469 14.0994 30.3855 14.0994 30.0722V18.012C14.0994 17.2289 14.6446 16.759 15.5794 16.759C16.5142 16.759 16.67 16.9939 17.0594 17.4638L25.0828 27.9578L33.1841 17.4638C33.4957 17.0722 33.8852 16.6807 34.6641 16.6807C35.4431 16.6807 36.1442 17.1505 36.1442 17.9337V29.9939C36.1442 30.7771 35.5989 31.1686 34.6641 31.1686L34.742 31.2469Z" fill="white"/>
<path d="M45.7255 31.2469C44.4012 31.2469 44.2454 30.3855 44.2454 30.0722V19.1867H39.2601C38.0137 19.1867 37.8579 18.3252 37.8579 18.012C37.8579 17.2288 38.4032 16.8373 39.2601 16.8373H52.0351C52.892 16.8373 53.4373 17.3072 53.4373 18.012C53.4373 18.7168 53.2815 19.1867 52.0351 19.1867H47.1276V30.0722C47.1276 30.4638 46.9718 31.2469 45.7255 31.2469Z" fill="white"/>
<path d="M75.8714 31.2469C74.5472 31.2469 74.3914 30.3855 74.3914 30.0722V21.8493L67.6144 30.6204C67.2249 31.0903 66.7575 31.3252 66.2122 31.3252C65.6669 31.3252 65.1995 31.0903 64.8101 30.6204L58.1109 21.8493V30.0722C58.1109 30.4638 57.9551 31.2469 56.6309 31.2469C55.3067 31.2469 55.2288 30.3855 55.2288 30.0722V18.012C55.2288 17.2289 55.774 16.759 56.7088 16.759C57.6436 16.759 57.7994 16.9939 58.1888 17.4638L66.2122 27.9578L74.3135 17.4638C74.6251 17.0722 75.0145 16.6807 75.7935 16.6807C76.5725 16.6807 77.2735 17.1505 77.2735 17.9337V29.9939C77.2735 30.7771 76.7283 31.1686 75.7935 31.1686L75.8714 31.2469Z" fill="white"/>
<path d="M8.6466 7.75293L5.37494 13.3915L2.10327 7.75293H8.6466Z" fill="#8E3C97"/>
<path d="M11.9183 13.3915H5.375L8.64667 7.75293L11.9183 13.3915Z" fill="#AF7EB8"/>
<path d="M8.64667 19.1083L5.375 13.3915H11.9183L8.64667 19.1083Z" fill="#414190"/>
<path d="M2.10327 19.1083L5.37494 13.3915L8.6466 19.1083H2.10327Z" fill="#615CA0"/>
<path d="M12.4636 13L15.7353 7.36145L19.007 13H12.4636Z" fill="#BCCE39"/>
<path d="M9.19189 7.36145H15.7352L12.4636 13L9.19189 7.36145Z" fill="#CED976"/>
<path d="M12.4636 1.64453L15.7352 7.3614H9.19189L12.4636 1.64453Z" fill="#EF812A"/>
<path d="M19.007 1.64453L15.7353 7.3614L12.4636 1.64453H19.007Z" fill="#F6AC73"/>
<path d="M78.52 13.9397C79.1432 13.9397 79.6105 14.4096 79.6105 15.0361C79.6105 15.6626 79.1432 16.1325 78.52 16.1325C77.8968 16.1325 77.4294 15.6626 77.4294 15.0361C77.4294 14.4096 77.8968 13.9397 78.52 13.9397ZM78.52 14.0963C78.0526 14.0963 77.6631 14.4879 77.6631 14.9578C77.6631 15.4276 78.0526 15.8192 78.52 15.8192C78.9874 15.8192 79.3769 15.4276 79.3769 14.9578C79.3769 14.4879 78.9874 14.0963 78.52 14.0963ZM78.3642 15.5843H78.1305V14.4879H78.52C78.6758 14.4879 78.8316 14.4879 78.8316 14.5662C78.8316 14.5662 78.8316 14.7228 78.8316 14.8011C78.8316 14.8795 78.8316 15.0361 78.5979 15.0361C78.5979 15.0361 78.7537 15.1927 78.7537 15.3493C78.7537 15.506 78.7537 15.5843 78.7537 15.6626H78.52C78.52 15.6626 78.52 15.506 78.52 15.3493C78.52 15.1927 78.52 15.1927 78.2863 15.1927H78.1305V15.6626H78.2863L78.3642 15.5843ZM78.3642 14.9578H78.52C78.6758 14.9578 78.8316 14.9578 78.8316 14.8011C78.8316 14.6445 78.8316 14.6445 78.5979 14.6445C78.3642 14.6445 78.4421 14.6445 78.4421 14.6445V14.9578H78.3642Z" fill="white"/>
<path d="M90.2044 2.19275H89.7371V37.3554H90.2044V2.19275Z" fill="white"/>
<path d="M103.759 16.2108V22.5542H111.081V16.2108H113.028V31.3253H111.081V24.1988H103.759V31.3253H101.811V16.2108H103.759Z" fill="white"/>
<path d="M116.923 26.235C116.923 28.8976 118.637 29.994 120.662 29.994C122.688 29.994 122.921 29.7591 123.622 29.4458L123.934 30.8554C123.233 31.1687 122.064 31.5603 120.351 31.5603C117.001 31.5603 115.054 29.3675 115.054 26.0783C115.054 22.7892 117.001 20.2048 120.117 20.2048C123.233 20.2048 124.557 23.3374 124.557 25.2952C124.557 27.253 124.557 26 124.557 26.235H116.923ZM122.688 24.8253C122.688 23.5723 122.142 21.6145 119.961 21.6145C117.78 21.6145 117.079 23.494 116.923 24.8253H122.688Z" fill="white"/>
<path d="M132.58 31.3253L132.425 29.994C131.801 30.8554 130.633 31.6386 129.153 31.6386C126.972 31.6386 125.881 30.0723 125.881 28.506C125.881 25.8434 128.218 24.4338 132.347 24.4338V24.1988C132.347 23.3374 132.113 21.6928 129.854 21.6928C127.595 21.6928 127.829 22.006 127.05 22.4759L126.582 21.1446C127.439 20.5964 128.764 20.2048 130.166 20.2048C133.437 20.2048 134.294 22.4759 134.294 24.6687V28.741C134.294 29.6807 134.294 30.6205 134.45 31.3253H132.58ZM132.269 25.7651C130.088 25.7651 127.673 26.0783 127.673 28.1928C127.673 30.3072 128.53 30.0723 129.542 30.0723C130.555 30.0723 131.879 29.2109 132.191 28.2711C132.191 28.0362 132.269 27.8795 132.269 27.6446V25.7651Z" fill="white"/>
<path d="M136.943 15.3494H138.89V31.3253H136.943V15.3494Z" fill="white"/>
<path d="M144.109 17.3072V20.4397H146.913V21.9277H144.109V27.8012C144.109 29.1325 144.499 29.9156 145.589 29.9156C146.68 29.9156 146.446 29.9156 146.758 29.759V31.247C146.446 31.4036 145.901 31.4819 145.122 31.4819C144.343 31.4819 143.486 31.1686 143.019 30.6204C142.473 30.0723 142.24 29.0542 142.24 27.8012V21.8494H140.526V20.3614H142.24V17.7771L144.187 17.2289L144.109 17.3072Z" fill="white"/>
<path d="M148.705 15.3494H150.653V22.1626C150.964 21.6144 151.431 21.1445 152.055 20.753C152.6 20.4397 153.301 20.2048 154.08 20.2048C155.56 20.2048 157.819 21.0662 157.819 24.8253V31.3253H155.872V25.0602C155.872 23.3373 155.248 21.8494 153.379 21.8494C151.509 21.8494 151.12 22.7108 150.73 23.8072C150.653 24.0421 150.575 24.3554 150.575 24.747V31.3253H148.627V15.3494H148.705Z" fill="white"/>
</svg>
