<svg width="160" height="39" viewBox="0 0 160 39" fill="none" xmlns="http://www.w3.org/2000/svg">
<path d="M34.7418 31.247C33.4175 31.247 33.2617 30.3855 33.2617 30.0723V21.8494L26.4847 30.6205C26.0952 31.0904 25.6278 31.3253 25.0826 31.3253C24.5373 31.3253 24.0699 31.0904 23.6804 30.6205L16.9813 21.8494V30.0723C16.9813 30.4639 16.8255 31.247 15.5013 31.247C14.177 31.247 14.0991 30.3855 14.0991 30.0723V18.0121C14.0991 17.2289 14.6444 16.759 15.5792 16.759C16.5139 16.759 16.6697 16.994 17.0592 17.4639L25.0826 27.9578L33.1838 17.4639C33.4954 17.0723 33.8849 16.6807 34.6639 16.6807C35.4428 16.6807 36.1439 17.1506 36.1439 17.9337V29.994C36.1439 30.7771 35.5986 31.1687 34.6639 31.1687L34.7418 31.247Z" fill="#003B53"/>
<path d="M45.725 31.247C44.4008 31.247 44.245 30.3855 44.245 30.0723V19.1867H39.2596C38.0132 19.1867 37.8574 18.3253 37.8574 18.012C37.8574 17.2289 38.4027 16.8373 39.2596 16.8373H52.0346C52.8915 16.8373 53.4368 17.3072 53.4368 18.012C53.4368 18.7169 53.281 19.1867 52.0346 19.1867H47.1271V30.0723C47.1271 30.4638 46.9713 31.247 45.725 31.247Z" fill="#003B53"/>
<path d="M75.8712 31.247C74.5469 31.247 74.3911 30.3855 74.3911 30.0723V21.8494L67.6141 30.6205C67.2246 31.0904 66.7572 31.3253 66.212 31.3253C65.6667 31.3253 65.1993 31.0904 64.8098 30.6205L58.1107 21.8494V30.0723C58.1107 30.4639 57.9549 31.247 56.6307 31.247C55.3064 31.247 55.2285 30.3855 55.2285 30.0723V18.0121C55.2285 17.2289 55.7738 16.759 56.7086 16.759C57.6433 16.759 57.7991 16.994 58.1886 17.4639L66.212 27.9578L74.3132 17.4639C74.6248 17.0723 75.0143 16.6807 75.7933 16.6807C76.5722 16.6807 77.2733 17.1506 77.2733 17.9337V29.994C77.2733 30.7771 76.728 31.1687 75.7933 31.1687L75.8712 31.247Z" fill="#003B53"/>
<path d="M8.64636 7.75305L5.37469 13.3916L2.10303 7.75305H8.64636Z" fill="#8E3C97"/>
<path d="M11.9178 13.3916H5.37451L8.64618 7.75305L11.9178 13.3916Z" fill="#AF7EB8"/>
<path d="M8.64618 19.1085L5.37451 13.3916H11.9178L8.64618 19.1085Z" fill="#414190"/>
<path d="M2.10303 19.1085L5.37469 13.3916L8.64636 19.1085H2.10303Z" fill="#615CA0"/>
<path d="M12.4634 13L15.735 7.36145L19.0067 13H12.4634Z" fill="#BCCE39"/>
<path d="M9.19141 7.36145H15.7347L12.4631 13L9.19141 7.36145Z" fill="#CED976"/>
<path d="M12.4631 1.64459L15.7347 7.36146H9.19141L12.4631 1.64459Z" fill="#EF812A"/>
<path d="M19.0067 1.64459L15.735 7.36146L12.4634 1.64459H19.0067Z" fill="#F6AC73"/>
<path d="M78.5198 13.9398C79.1429 13.9398 79.6103 14.4096 79.6103 15.0361C79.6103 15.6627 79.1429 16.1325 78.5198 16.1325C77.8966 16.1325 77.4292 15.6627 77.4292 15.0361C77.4292 14.4096 77.8966 13.9398 78.5198 13.9398ZM78.5198 14.0964C78.0524 14.0964 77.6629 14.488 77.6629 14.9578C77.6629 15.4277 78.0524 15.8193 78.5198 15.8193C78.9871 15.8193 79.3766 15.4277 79.3766 14.9578C79.3766 14.488 78.9871 14.0964 78.5198 14.0964ZM78.364 15.5843H78.1303V14.488H78.5198C78.6755 14.488 78.8313 14.488 78.8313 14.5663C78.8313 14.5663 78.8313 14.7229 78.8313 14.8012C78.8313 14.8795 78.8313 15.0361 78.5977 15.0361C78.5977 15.0361 78.7534 15.1928 78.7534 15.3494C78.7534 15.506 78.7534 15.5843 78.7534 15.6627H78.5198C78.5198 15.6627 78.5198 15.506 78.5198 15.3494C78.5198 15.1928 78.5198 15.1928 78.2861 15.1928H78.1303V15.6627H78.2861L78.364 15.5843ZM78.364 14.9578H78.5198C78.6755 14.9578 78.8313 14.9578 78.8313 14.8012C78.8313 14.6446 78.8313 14.6446 78.5977 14.6446C78.364 14.6446 78.4419 14.6446 78.4419 14.6446V14.9578H78.364Z" fill="#003B53"/>
<path d="M90.2042 2.19281H89.7368V37.3555H90.2042V2.19281Z" fill="#929497"/>
<path d="M103.758 16.2109V22.5542H111.081V16.2109H113.028V31.3253H111.081V24.1988H103.758V31.3253H101.811V16.2109H103.758Z" fill="#353535"/>
<path d="M116.923 26.235C116.923 28.8976 118.637 29.994 120.662 29.994C122.688 29.994 122.921 29.7591 123.622 29.4458L123.934 30.8554C123.233 31.1687 122.064 31.5603 120.351 31.5603C117.001 31.5603 115.054 29.3675 115.054 26.0783C115.054 22.7892 117.001 20.2048 120.117 20.2048C123.233 20.2048 124.557 23.3374 124.557 25.2952C124.557 27.253 124.557 26 124.557 26.235H116.923ZM122.688 24.8253C122.688 23.5723 122.142 21.6145 119.961 21.6145C117.78 21.6145 117.079 23.494 116.923 24.8253H122.688Z" fill="#353535"/>
<path d="M132.58 31.3253L132.425 29.994C131.801 30.8554 130.633 31.6386 129.153 31.6386C126.972 31.6386 125.881 30.0723 125.881 28.506C125.881 25.8434 128.218 24.4338 132.347 24.4338V24.1988C132.347 23.3374 132.113 21.6928 129.854 21.6928C127.595 21.6928 127.829 22.006 127.05 22.4759L126.582 21.1446C127.439 20.5964 128.764 20.2048 130.166 20.2048C133.437 20.2048 134.294 22.4759 134.294 24.6687V28.741C134.294 29.6807 134.294 30.6205 134.45 31.3253H132.58ZM132.269 25.7651C130.088 25.7651 127.673 26.0783 127.673 28.1928C127.673 30.3072 128.53 30.0723 129.542 30.0723C130.555 30.0723 131.879 29.2109 132.191 28.2711C132.191 28.0362 132.269 27.8795 132.269 27.6446V25.7651Z" fill="#353535"/>
<path d="M136.942 15.3494H138.89V31.3253H136.942V15.3494Z" fill="#353535"/>
<path d="M144.109 17.3073V20.4398H146.913V21.9277H144.109V27.8012C144.109 29.1326 144.499 29.9157 145.589 29.9157C146.68 29.9157 146.446 29.9157 146.758 29.7591V31.247C146.446 31.4036 145.901 31.482 145.122 31.482C144.343 31.482 143.486 31.1687 143.019 30.6205C142.473 30.0723 142.24 29.0542 142.24 27.8012V21.8494H140.526V20.3615H142.24V17.7771L144.187 17.2289L144.109 17.3073Z" fill="#353535"/>
<path d="M148.705 15.3494H150.652V22.1627C150.964 21.6145 151.431 21.1446 152.054 20.753C152.6 20.4398 153.301 20.2048 154.08 20.2048C155.56 20.2048 157.819 21.0663 157.819 24.8253V31.3253H155.871V25.0603C155.871 23.3374 155.248 21.8494 153.379 21.8494C151.509 21.8494 151.12 22.7109 150.73 23.8073C150.652 24.0422 150.574 24.3555 150.574 24.747V31.3253H148.627V15.3494H148.705Z" fill="#353535"/>
</svg>
