<svg width="131" height="85" viewBox="0 0 131 85" fill="none" xmlns="http://www.w3.org/2000/svg">
<path d="M54.983 49.8681C52.7522 49.8681 52.4897 48.4169 52.4897 47.8892V34.037L41.0732 48.8127C40.4171 49.6042 39.6297 50 38.7112 50C37.7926 50 37.0052 49.6042 36.3491 48.8127L25.0638 34.037V47.8892C25.0638 48.5488 24.8014 49.8681 22.5705 49.8681C20.3397 49.8681 20.2085 48.4169 20.2085 47.8892V27.5726C20.2085 26.2533 21.1271 25.4618 22.7018 25.4618C24.2765 25.4618 24.5389 25.8575 25.195 26.6491L38.7112 44.3272L52.3585 26.6491C52.8834 25.9895 53.5395 25.3298 54.8518 25.3298C56.164 25.3298 57.3451 26.1214 57.3451 27.4407V47.7573C57.3451 49.0765 56.4265 49.7362 54.8518 49.7362L54.983 49.8681Z" fill="white"/>
<path d="M73.4859 49.868C71.255 49.868 70.9926 48.4169 70.9926 47.8892V29.5514H62.5942C60.4946 29.5514 60.2322 28.1002 60.2322 27.5725C60.2322 26.2533 61.1508 25.5936 62.5942 25.5936H84.1151C85.5585 25.5936 86.4771 26.3852 86.4771 27.5725C86.4771 28.7599 86.2147 29.5514 84.1151 29.5514H75.8479V47.8892C75.8479 48.5488 75.5855 49.868 73.4859 49.868Z" fill="white"/>
<path d="M124.27 49.8681C122.039 49.8681 121.776 48.4169 121.776 47.8892V34.037L110.36 48.8127C109.704 49.6042 108.916 50 107.998 50C107.079 50 106.292 49.6042 105.636 48.8127L94.3504 34.037V47.8892C94.3504 48.5488 94.088 49.8681 91.8572 49.8681C89.6263 49.8681 89.4951 48.4169 89.4951 47.8892V27.5726C89.4951 26.2533 90.4137 25.4618 91.9884 25.4618C93.5631 25.4618 93.8255 25.8575 94.4816 26.6491L107.998 44.3272L121.645 26.6491C122.17 25.9895 122.826 25.3298 124.138 25.3298C125.451 25.3298 126.632 26.1214 126.632 27.4407V47.7573C126.632 49.0765 125.713 49.7362 124.138 49.7362L124.27 49.8681Z" fill="white"/>
<path d="M11.0229 10.2903L5.51143 19.789L0 10.2903H11.0229Z" fill="#8E3C97"/>
<path d="M16.5346 19.789H5.51172L11.0232 10.2903L16.5346 19.789Z" fill="#AF7EB8"/>
<path d="M11.0232 29.4195L5.51172 19.7889H16.5346L11.0232 29.4195Z" fill="#414190"/>
<path d="M0 29.4195L5.51143 19.7889L11.0229 29.4195H0Z" fill="#615CA0"/>
<path d="M17.4531 19.1293L22.9646 9.63062L28.476 19.1293H17.4531Z" fill="#BCCE39"/>
<path d="M11.9414 9.63062H22.9643L17.4528 19.1293L11.9414 9.63062Z" fill="#CED976"/>
<path d="M17.4528 0L22.9643 9.63061H11.9414L17.4528 0Z" fill="#EF812A"/>
<path d="M28.476 0L22.9646 9.63061L17.4531 0H28.476Z" fill="#F6AC73"/>
<path d="M128.731 20.7124C129.781 20.7124 130.569 21.504 130.569 22.5594C130.569 23.6148 129.781 24.4063 128.731 24.4063C127.682 24.4063 126.894 23.6148 126.894 22.5594C126.894 21.504 127.682 20.7124 128.731 20.7124ZM128.731 20.9763C127.944 20.9763 127.288 21.6359 127.288 22.4274C127.288 23.219 127.944 23.8786 128.731 23.8786C129.519 23.8786 130.175 23.219 130.175 22.4274C130.175 21.6359 129.519 20.9763 128.731 20.9763ZM128.469 23.4829H128.075V21.6359H128.731C128.994 21.6359 129.256 21.6359 129.256 21.7678C129.256 21.7678 129.256 22.0317 129.256 22.1636C129.256 22.2955 129.256 22.5594 128.863 22.5594C128.863 22.5594 129.125 22.8232 129.125 23.0871C129.125 23.3509 129.125 23.4829 129.125 23.6148H128.731C128.731 23.6148 128.731 23.3509 128.731 23.0871C128.731 22.8232 128.731 22.8232 128.338 22.8232H128.075V23.6148H128.338L128.469 23.4829ZM128.469 22.4274H128.731C128.994 22.4274 129.256 22.4274 129.256 22.1636C129.256 21.8997 129.256 21.8997 128.863 21.8997C128.469 21.8997 128.6 21.8997 128.6 21.8997V22.4274H128.469Z" fill="#003B53"/>
<path d="M36.4764 69.3125V68H48.0779V69.3125H43.0076V84H41.5467V69.3125H36.4764ZM50.9318 84V72H52.2834V73.8437H52.385C52.6245 73.2396 53.0412 72.7526 53.635 72.3828C54.2339 72.0078 54.911 71.8203 55.6662 71.8203C55.7808 71.8203 55.9084 71.8229 56.049 71.8281C56.1896 71.8333 56.3068 71.8385 56.4006 71.8438V73.2578C56.3381 73.2474 56.2287 73.2318 56.0725 73.2109C55.9162 73.1901 55.7469 73.1797 55.5646 73.1797C54.9396 73.1797 54.3824 73.3125 53.8928 73.5781C53.4084 73.8385 53.0256 74.2005 52.7443 74.6641C52.4631 75.1276 52.3225 75.6562 52.3225 76.25V84H50.9318ZM63.2252 84.2734C62.5012 84.2734 61.8398 84.1328 61.2408 83.8516C60.6419 83.5651 60.1653 83.1536 59.8111 82.6172C59.457 82.0755 59.2799 81.4193 59.2799 80.6484C59.2799 80.0547 59.3919 79.5547 59.6158 79.1484C59.8398 78.7422 60.1575 78.4089 60.5689 78.1484C60.9804 77.888 61.4674 77.6823 62.0299 77.5312C62.5924 77.3802 63.2122 77.263 63.8893 77.1797C64.5611 77.0964 65.1288 77.0234 65.5924 76.9609C66.0611 76.8984 66.4179 76.7995 66.6627 76.6641C66.9075 76.5286 67.0299 76.3099 67.0299 76.0078V75.7266C67.0299 74.9089 66.7851 74.2656 66.2955 73.7969C65.8111 73.3229 65.1132 73.0859 64.2018 73.0859C63.3372 73.0859 62.6314 73.276 62.0846 73.6562C61.5429 74.0365 61.1627 74.4844 60.9439 75L59.6236 74.5234C59.8945 73.8672 60.2695 73.3437 60.7486 72.9531C61.2278 72.5573 61.7643 72.2734 62.358 72.1016C62.9518 71.9245 63.5533 71.8359 64.1627 71.8359C64.621 71.8359 65.0976 71.8958 65.5924 72.0156C66.0924 72.1354 66.5559 72.3437 66.983 72.6406C67.4101 72.9323 67.7564 73.3411 68.0221 73.8672C68.2877 74.388 68.4205 75.0495 68.4205 75.8516V84H67.0299V82.1016H66.9439C66.7773 82.4557 66.5299 82.7995 66.2018 83.1328C65.8736 83.4661 65.4622 83.7396 64.9674 83.9531C64.4726 84.1667 63.8919 84.2734 63.2252 84.2734ZM63.4127 83C64.1523 83 64.7929 82.8359 65.3346 82.5078C65.8762 82.1797 66.2929 81.7448 66.5846 81.2031C66.8814 80.6562 67.0299 80.0547 67.0299 79.3984V77.6641C66.9257 77.763 66.7512 77.8516 66.5064 77.9297C66.2669 78.0078 65.9882 78.0781 65.6705 78.1406C65.358 78.1979 65.0455 78.2474 64.733 78.2891C64.4205 78.3307 64.1393 78.3672 63.8893 78.3984C63.2122 78.4818 62.6341 78.612 62.1549 78.7891C61.6757 78.9661 61.3085 79.2109 61.0533 79.5234C60.7981 79.8307 60.6705 80.2266 60.6705 80.7109C60.6705 81.4401 60.9309 82.0052 61.4518 82.4062C61.9726 82.8021 62.6262 83 63.4127 83ZM74.6104 76.5V84H73.2197V72H74.5713V73.8828H74.6963C74.9775 73.2682 75.415 72.776 76.0088 72.4063C76.6077 72.0313 77.3473 71.8438 78.2275 71.8438C79.0348 71.8438 79.7432 72.013 80.3525 72.3516C80.9671 72.6849 81.4437 73.1771 81.7822 73.8281C82.126 74.4792 82.2979 75.2786 82.2979 76.2266V84H80.9072V76.3125C80.9072 75.3281 80.6312 74.5495 80.0791 73.9766C79.5322 73.4036 78.7979 73.1172 77.876 73.1172C77.2458 73.1172 76.6859 73.2526 76.1963 73.5234C75.7067 73.7943 75.3187 74.1849 75.0322 74.6953C74.751 75.2005 74.6104 75.8021 74.6104 76.5ZM95.1225 74.6328L93.849 74.9922C93.724 74.6328 93.5469 74.3073 93.3178 74.0156C93.0886 73.724 92.7891 73.4922 92.4193 73.3203C92.0548 73.1484 91.6016 73.0625 91.06 73.0625C90.2475 73.0625 89.5808 73.2552 89.06 73.6406C88.5391 74.026 88.2787 74.5234 88.2787 75.1328C88.2787 75.6484 88.4558 76.0677 88.81 76.3906C89.1693 76.7083 89.7214 76.9609 90.4662 77.1484L92.2787 77.5937C93.2839 77.8385 94.0365 78.2266 94.5365 78.7578C95.0417 79.2891 95.2943 79.9557 95.2943 80.7578C95.2943 81.4349 95.1068 82.0365 94.7318 82.5625C94.3568 83.0885 93.8334 83.5026 93.1615 83.8047C92.4949 84.1016 91.7214 84.25 90.8412 84.25C89.6693 84.25 88.7032 83.987 87.9428 83.4609C87.1824 82.9297 86.6954 82.1641 86.4818 81.1641L87.8178 80.8359C87.9897 81.5495 88.3256 82.0885 88.8256 82.4531C89.3308 82.8177 89.9949 83 90.8178 83C91.7397 83 92.4766 82.7943 93.0287 82.3828C93.5808 81.9661 93.8568 81.4453 93.8568 80.8203C93.8568 80.3359 93.6954 79.9297 93.3725 79.6016C93.0495 79.2682 92.56 79.0234 91.9037 78.8672L89.9428 78.3984C88.9011 78.1484 88.1303 77.7526 87.6303 77.2109C87.1303 76.6693 86.8803 75.9974 86.8803 75.1953C86.8803 74.5339 87.06 73.9531 87.4193 73.4531C87.7787 72.9479 88.2735 72.5521 88.9037 72.2656C89.5339 71.9792 90.2527 71.8359 91.06 71.8359C92.1589 71.8359 93.0365 72.0859 93.6928 72.5859C94.3542 73.0807 94.8308 73.763 95.1225 74.6328ZM99.4549 84V72H100.853V84H99.4549ZM100.166 69.9375C99.8794 69.9375 99.6346 69.8411 99.4314 69.6484C99.2283 69.4505 99.1268 69.2135 99.1268 68.9375C99.1268 68.6615 99.2283 68.4271 99.4314 68.2344C99.6346 68.0365 99.8794 67.9375 100.166 67.9375C100.452 67.9375 100.697 68.0365 100.9 68.2344C101.103 68.4271 101.205 68.6615 101.205 68.9375C101.205 69.2135 101.103 69.4505 100.9 69.6484C100.697 69.8411 100.452 69.9375 100.166 69.9375ZM110.358 72V73.2109H104.631V72H110.358ZM106.42 69.125H107.819V80.8672C107.819 81.3672 107.904 81.7604 108.076 82.0469C108.248 82.3281 108.472 82.5286 108.748 82.6484C109.024 82.763 109.319 82.8203 109.631 82.8203C109.813 82.8203 109.97 82.8099 110.1 82.7891C110.23 82.763 110.345 82.737 110.444 82.7109L110.74 83.9687C110.605 84.0208 110.438 84.0677 110.24 84.1094C110.043 84.1563 109.798 84.1797 109.506 84.1797C108.996 84.1797 108.503 84.0677 108.029 83.8437C107.561 83.6198 107.175 83.2865 106.873 82.8437C106.571 82.401 106.42 81.8516 106.42 81.1953V69.125Z" fill="white"/>
</svg>
