<svg width="16" height="16" viewBox="0 0 16 16" fill="none" xmlns="http://www.w3.org/2000/svg">
<path d="M10.5 8H12.1666C12.1666 6.89493 11.7277 5.83512 10.9463 5.05372C10.1649 4.27232 9.10505 3.83333 7.99998 3.83333V5.5C8.66302 5.5 9.2989 5.76339 9.76774 6.23223C10.2366 6.70107 10.5 7.33696 10.5 8ZM13.8333 8H15.5C15.5 3.83333 12.1416 0.5 7.99998 0.5V2.16667C11.2166 2.16667 13.8333 4.775 13.8333 8ZM14.6666 10.9167C13.625 10.9167 12.625 10.75 11.6916 10.4417C11.4 10.35 11.075 10.4167 10.8416 10.65L9.00831 12.4833C6.64998 11.2833 4.71664 9.35 3.51664 6.99167L5.34998 5.15833C5.58331 4.925 5.64998 4.6 5.55831 4.30833C5.24998 3.375 5.08331 2.375 5.08331 1.33333C5.08331 1.11232 4.99551 0.900358 4.83923 0.744078C4.68295 0.587797 4.47099 0.5 4.24998 0.5H1.33331C1.1123 0.5 0.900335 0.587797 0.744055 0.744078C0.587774 0.900358 0.499977 1.11232 0.499977 1.33333C0.499977 5.09057 1.99253 8.69391 4.6493 11.3507C7.30606 14.0074 10.9094 15.5 14.6666 15.5C14.8877 15.5 15.0996 15.4122 15.2559 15.2559C15.4122 15.0996 15.5 14.8877 15.5 14.6667V11.75C15.5 11.529 15.4122 11.317 15.2559 11.1607C15.0996 11.0045 14.8877 10.9167 14.6666 10.9167Z" fill="white"/>
</svg>
