<svg width="1876" height="207" viewBox="0 0 1876 207" fill="none" xmlns="http://www.w3.org/2000/svg">
<path d="M220.455 206.655C211.255 206.655 202.17 205.275 193.2 202.515C184.46 199.525 174.455 192.395 163.185 181.125L138.345 156.285C128.225 145.935 117.07 138.345 104.88 133.515C92.92 128.685 77.855 126.27 59.685 126.27H48.99V203.205H3.45V27.945L0 0H152.835C167.555 0 179.055 1.95501 187.335 5.86501C195.845 9.77502 202.055 14.95 205.965 21.39C210.105 27.6 212.75 34.27 213.9 41.4C215.05 48.53 215.625 55.315 215.625 61.755V68.31C215.625 73.37 214.935 79.005 213.555 85.215C212.175 91.425 209.53 97.52 205.62 103.5C201.71 109.48 196.075 114.54 188.715 118.68C181.585 122.82 172.155 125.235 160.425 125.925C163.415 127.535 167.21 130.065 171.81 133.515C176.41 136.735 181.125 140.3 185.955 144.21C191.015 148.12 195.615 151.685 199.755 154.905C203.895 158.125 207.115 160.425 209.415 161.805C217.695 166.635 225.055 169.97 231.495 171.81C237.935 173.65 243.225 174.685 247.365 174.915C251.505 175.145 253.92 175.26 254.61 175.26L247.71 203.205C245.64 203.895 242.19 204.585 237.36 205.275C232.53 206.195 226.895 206.655 220.455 206.655ZM100.74 94.875C109.48 94.875 117.3 94.76 124.2 94.53C131.1 94.07 137.31 93.61 142.83 93.15C152.95 92 159.965 89.24 163.875 84.87C168.015 80.27 170.085 74.405 170.085 67.275V59.34C170.085 51.98 168.13 45.77 164.22 40.71C160.31 35.65 153.295 33.12 143.175 33.12H48.99V93.15C59.11 93.84 68.425 94.3 76.935 94.53C85.445 94.76 93.38 94.875 100.74 94.875ZM345.388 203.205C329.288 203.205 316.638 200.905 307.438 196.305C298.238 191.705 291.683 184.805 287.773 175.605C284.093 166.405 282.253 155.02 282.253 141.45V61.755C282.253 48.415 284.093 37.26 287.773 28.29C291.453 19.09 297.893 12.19 307.093 7.59001C316.293 2.76002 329.058 0.345016 345.388 0.345016H446.128C462.228 0.345016 474.763 2.76002 483.733 7.59001C492.933 12.19 499.373 19.09 503.053 28.29C506.963 37.26 508.918 48.415 508.918 61.755V141.45C508.918 161.69 504.433 177.1 495.463 187.68C486.493 198.03 470.048 203.205 446.128 203.205H345.388ZM355.393 170.085H436.468C444.978 170.085 451.533 167.9 456.133 163.53C460.963 159.16 463.378 153.18 463.378 145.59V57.615C463.378 50.945 460.963 45.31 456.133 40.71C451.303 35.88 444.748 33.465 436.468 33.465H355.393C347.113 33.465 340.443 35.65 335.383 40.02C330.323 44.39 327.793 50.255 327.793 57.615V145.59C327.793 153.41 330.208 159.505 335.038 163.875C340.098 168.015 346.883 170.085 355.393 170.085ZM560.625 203.205V0H710.7C732.32 0 748.075 4.37001 757.965 13.11C767.855 21.62 772.8 31.97 772.8 44.16V54.51C772.8 63.94 770.73 71.76 766.59 77.97C762.68 83.95 758.425 88.205 753.825 90.735C763.945 93.955 771.995 99.59 777.975 107.64C783.955 115.46 786.945 125.81 786.945 138.69V144.9C786.945 151.8 786.14 158.7 784.53 165.6C782.92 172.5 779.815 178.825 775.215 184.575C770.845 190.095 764.52 194.58 756.24 198.03C748.19 201.48 737.61 203.205 724.5 203.205H560.625ZM606.165 81.42H703.455C711.505 81.65 717.485 79.695 721.395 75.555C725.305 71.185 727.26 65.78 727.26 59.34V55.89C727.26 50.6 725.42 45.54 721.74 40.71C718.06 35.65 711.16 33.12 701.04 33.12H606.165V81.42ZM606.165 170.085H714.84C723.58 170.085 730.135 167.9 734.505 163.53C739.105 159.16 741.405 153.18 741.405 145.59V139.38C741.405 132.25 738.76 126.5 733.47 122.13C728.18 117.53 719.44 115.23 707.25 115.23H606.165V170.085ZM894.895 203.205C878.795 203.205 866.145 200.905 856.945 196.305C847.745 191.705 841.19 184.805 837.28 175.605C833.6 166.405 831.76 155.02 831.76 141.45V61.755C831.76 48.415 833.6 37.26 837.28 28.29C840.96 19.09 847.4 12.19 856.6 7.59001C865.8 2.76002 878.565 0.345016 894.895 0.345016H995.635C1011.73 0.345016 1024.27 2.76002 1033.24 7.59001C1042.44 12.19 1048.88 19.09 1052.56 28.29C1056.47 37.26 1058.42 48.415 1058.42 61.755V141.45C1058.42 161.69 1053.94 177.1 1044.97 187.68C1036 198.03 1019.55 203.205 995.635 203.205H894.895ZM904.9 170.085H985.975C994.485 170.085 1001.04 167.9 1005.64 163.53C1010.47 159.16 1012.88 153.18 1012.88 145.59V57.615C1012.88 50.945 1010.47 45.31 1005.64 40.71C1000.81 35.88 994.255 33.465 985.975 33.465H904.9C896.62 33.465 889.95 35.65 884.89 40.02C879.83 44.39 877.3 50.255 877.3 57.615V145.59C877.3 153.41 879.715 159.505 884.545 163.875C889.605 168.015 896.39 170.085 904.9 170.085ZM1430.25 203.205C1414.15 203.205 1401.5 200.905 1392.3 196.305C1383.1 191.705 1376.55 184.805 1372.64 175.605C1368.96 166.405 1367.12 155.02 1367.12 141.45V61.755C1367.12 48.415 1368.96 37.26 1372.64 28.29C1376.32 19.09 1382.76 12.19 1391.96 7.59001C1401.16 2.76002 1413.92 0.345016 1430.25 0.345016H1530.99C1547.09 0.345016 1559.63 2.76002 1568.6 7.59001C1577.8 12.19 1584.24 19.09 1587.92 28.29C1591.83 37.26 1593.78 48.415 1593.78 61.755V141.45C1593.78 161.69 1589.3 177.1 1580.33 187.68C1571.36 198.03 1554.91 203.205 1530.99 203.205H1430.25ZM1440.26 170.085H1521.33C1529.84 170.085 1536.4 167.9 1541 163.53C1545.83 159.16 1548.24 153.18 1548.24 145.59V57.615C1548.24 50.945 1545.83 45.31 1541 40.71C1536.17 35.88 1529.61 33.465 1521.33 33.465H1440.26C1431.98 33.465 1425.31 35.65 1420.25 40.02C1415.19 44.39 1412.66 50.255 1412.66 57.615V145.59C1412.66 153.41 1415.07 159.505 1419.9 163.875C1424.96 168.015 1431.75 170.085 1440.26 170.085ZM1648.94 203.205V27.945L1645.49 0.345016H1695.17L1812.47 123.165L1825.92 141.795H1829.72V0.345016H1875.26V203.205H1831.44L1711.38 78.315L1697.93 62.1H1694.48V203.205H1648.94Z" fill="#FBFBFC"/>
<path d="M1169.82 203.205C1153.49 203.205 1140.72 200.905 1131.52 196.305C1122.32 191.705 1115.88 184.805 1112.2 175.605C1108.52 166.405 1106.68 155.02 1106.68 141.45V64.515C1106.68 42.435 1111.63 26.22 1121.52 15.87C1131.41 5.29001 1147.51 1.52588e-05 1169.82 1.52588e-05H1273.66C1289.53 1.52588e-05 1313.12 4.12509 1321.4 5.96509C1329.91 7.5751 1336.11 67.2902 1336.11 72.7051H1297.4C1297.4 75.515 1300.23 35.19 1280.91 34.5C1261.82 33.58 1233.99 33.12 1197.42 33.12H1179.82C1161.42 33.12 1152.22 41.285 1152.22 57.615V145.59C1152.22 153.41 1154.18 159.505 1158.09 163.875C1162.23 168.015 1169.47 170.085 1179.82 170.085H1193.97C1232.15 170.085 1261.7 169.74 1282.63 169.05C1293.9 168.678 1294.4 160.705 1297.4 132.205L1336.11 135.205C1336.11 147.205 1334.15 191.935 1330.24 194.235C1326.56 196.535 1319.66 198.605 1309.54 200.445C1299.42 202.285 1284.82 203.205 1265.73 203.205H1169.82Z" fill="#FC0002"/>
</svg>
