<svg width="103" height="85" viewBox="0 0 103 85" fill="none" xmlns="http://www.w3.org/2000/svg">
<g clip-path="url(#clip0_2_316)">
<path fill-rule="evenodd" clip-rule="evenodd" d="M2.78608 0H99.7144C100.453 0.00220041 101.16 0.296438 101.682 0.81845C102.204 1.34046 102.498 2.04783 102.501 2.78606V67.0157C102.498 67.7539 102.204 68.4613 101.682 68.9833C101.16 69.5053 100.453 69.7996 99.7144 69.8018H2.78608C2.41911 69.8007 2.05595 69.7273 1.71734 69.5859C1.37872 69.4444 1.07128 69.2377 0.812573 68.9774C0.553863 68.7171 0.348948 68.4085 0.209528 68.069C0.070109 67.7296 -0.00108457 67.366 1.24882e-05 66.999V2.76938C0.00659466 2.03405 0.302765 1.33094 0.824306 0.812526C1.34585 0.294108 2.05072 0.00216566 2.78608 0ZM41.157 52.1344H41.2571L43.9014 50.6079C43.92 50.589 43.9342 50.5662 43.9431 50.5412C43.9475 50.5321 43.9498 50.5221 43.9498 50.512C43.9498 50.5019 43.9475 50.4919 43.9431 50.4828L41.0486 45.4779C41.0233 45.4371 41.0063 45.3918 40.9985 45.3445C40.9851 45.2847 40.9838 45.2229 40.9947 45.1626C41.0055 45.1023 41.0284 45.0449 41.0618 44.9935C41.0952 44.9422 41.1386 44.8981 41.1893 44.8639C41.2401 44.8296 41.2972 44.8058 41.3572 44.7939L45.6114 43.9097C45.9288 43.8514 46.2302 43.7263 46.4956 43.5427C46.5816 43.4823 46.6483 43.3983 46.6875 43.3008C46.6989 43.2745 46.7049 43.2461 46.7049 43.2174C46.7049 43.1887 46.6989 43.1603 46.6875 43.134C46.5909 42.9854 46.4627 42.8601 46.3121 42.7669L31.8896 32.8155L33.2326 50.2576C33.2363 50.4344 33.2791 50.6081 33.3577 50.7664C33.3723 50.7935 33.3925 50.8172 33.4169 50.8359C33.4414 50.8546 33.4695 50.8679 33.4995 50.8749C33.6024 50.8877 33.7067 50.8703 33.7998 50.8248C34.0927 50.6921 34.352 50.4954 34.5589 50.2493L37.4534 46.9961C37.4862 46.9561 37.5257 46.9223 37.5702 46.896C37.6789 46.8353 37.807 46.8196 37.9271 46.8524C38.0472 46.8851 38.1497 46.9637 38.2125 47.0711L41.132 52.0761C41.1482 52.0818 41.1659 52.0818 41.1821 52.0761L41.157 52.1344ZM15.4902 19.6026C15.3393 19.6018 15.1899 19.6328 15.0517 19.6935C14.9136 19.7542 14.7897 19.8433 14.6883 19.955C14.5868 20.0667 14.5099 20.1985 14.4627 20.3419C14.4155 20.4852 14.3989 20.6369 14.4141 20.787V23.0309C14.4132 23.2439 14.4755 23.4524 14.5932 23.63C14.7108 23.8076 14.8785 23.9462 15.075 24.0284C15.2716 24.1106 15.488 24.1326 15.6971 24.0916C15.9061 24.0507 16.0983 23.9486 16.2493 23.7983C16.353 23.6994 16.4353 23.5802 16.4913 23.4482C16.5472 23.3163 16.5756 23.1743 16.5746 23.0309V21.6879H17.6507C17.792 21.6879 17.9319 21.6601 18.0624 21.606C18.193 21.5519 18.3116 21.4727 18.4115 21.3728C18.5115 21.2728 18.5907 21.1542 18.6448 21.0237C18.6989 20.8931 18.7267 20.7532 18.7267 20.6119C18.7267 20.4706 18.6989 20.3306 18.6448 20.2001C18.5907 20.0695 18.5115 19.9509 18.4115 19.851C18.3116 19.7511 18.193 19.6718 18.0624 19.6177C17.9319 19.5637 17.792 19.5358 17.6507 19.5358L15.4902 19.6026ZM16.5663 27.3435C16.5672 27.1305 16.5049 26.922 16.3872 26.7444C16.2696 26.5668 16.1019 26.4282 15.9054 26.346C15.7088 26.2638 15.4923 26.2418 15.2833 26.2828C15.0743 26.3237 14.8821 26.4258 14.7311 26.5761C14.6274 26.675 14.5451 26.7942 14.4891 26.9261C14.4332 27.0581 14.4048 27.2001 14.4058 27.3435V29.5039C14.4049 29.7169 14.4672 29.9254 14.5848 30.103C14.7025 30.2806 14.8702 30.4192 15.0667 30.5014C15.2632 30.5836 15.4797 30.6056 15.6887 30.5646C15.8978 30.5237 16.09 30.4216 16.2409 30.2713C16.3446 30.1724 16.427 30.0532 16.4829 29.9213C16.5389 29.7893 16.5672 29.6473 16.5663 29.5039V27.3101V27.3435ZM16.5663 33.8165C16.5649 33.6045 16.5015 33.3975 16.3838 33.2212C16.2662 33.0449 16.0994 32.9069 15.9041 32.8244C15.7088 32.7418 15.4937 32.7183 15.2852 32.7568C15.0767 32.7952 14.8841 32.894 14.7311 33.0407C14.6276 33.1416 14.5454 33.2622 14.4895 33.3955C14.4336 33.5288 14.4052 33.672 14.4058 33.8165V35.9686C14.4071 36.1806 14.4705 36.3875 14.5882 36.5639C14.7059 36.7402 14.8727 36.8782 15.068 36.9607C15.2632 37.0432 15.4784 37.0667 15.6869 37.0283C15.8953 36.9898 16.088 36.8911 16.2409 36.7444C16.3445 36.6435 16.4266 36.5229 16.4825 36.3896C16.5384 36.2563 16.5669 36.1131 16.5663 35.9686V33.7831V33.8165ZM16.5663 40.2812C16.5633 40.0699 16.4988 39.8641 16.3804 39.689C16.2621 39.5139 16.0953 39.3772 15.9003 39.2957C15.7054 39.2142 15.4909 39.1914 15.2832 39.2301C15.0755 39.2689 14.8836 39.3674 14.7311 39.5137C14.6282 39.6133 14.5464 39.7326 14.4905 39.8644C14.4346 39.9962 14.4058 40.138 14.4058 40.2812V42.4416C14.3926 42.5914 14.4108 42.7424 14.4591 42.8848C14.5074 43.0273 14.5848 43.1581 14.6864 43.269C14.7879 43.38 14.9115 43.4685 15.0492 43.5291C15.1868 43.5897 15.3356 43.621 15.486 43.621C15.6364 43.621 15.7852 43.5897 15.9229 43.5291C16.0606 43.4685 16.1841 43.38 16.2857 43.269C16.3873 43.1581 16.4647 43.0273 16.513 42.8848C16.5613 42.7424 16.5794 42.5914 16.5663 42.4416V40.2478V40.2812ZM16.5663 46.7542C16.5672 46.5412 16.5049 46.3327 16.3872 46.1551C16.2696 45.9775 16.1019 45.8389 15.9054 45.7567C15.7088 45.6745 15.4923 45.6525 15.2833 45.6935C15.0743 45.7344 14.8821 45.8365 14.7311 45.9868C14.6274 46.0857 14.5451 46.2049 14.4891 46.3368C14.4332 46.4688 14.4048 46.6108 14.4058 46.7542V48.7228C14.4002 48.8686 14.4241 49.0141 14.4761 49.1506C14.528 49.287 14.607 49.4115 14.7083 49.5167C14.8095 49.6218 14.931 49.7054 15.0654 49.7625C15.1997 49.8196 15.3442 49.849 15.4902 49.8489H15.632C15.8219 49.848 16.0083 49.7973 16.1725 49.7018C16.3367 49.6062 16.4729 49.4693 16.5675 49.3046C16.6621 49.1399 16.7118 48.9532 16.7115 48.7633C16.7113 48.5733 16.6612 48.3868 16.5663 48.2223V46.7125V46.7542ZM19.9446 47.6884C19.7316 47.6875 19.5231 47.7498 19.3455 47.8674C19.1679 47.9851 19.0293 48.1528 18.9471 48.3493C18.8649 48.5458 18.8429 48.7623 18.8839 48.9714C18.9248 49.1804 19.0269 49.3726 19.1771 49.5235C19.2761 49.6272 19.3953 49.7096 19.5272 49.7655C19.6592 49.8215 19.8012 49.8498 19.9446 49.8489H22.105C22.3163 49.8459 22.5221 49.7814 22.6972 49.6631C22.8723 49.5448 23.009 49.3779 23.0905 49.1829C23.172 48.988 23.1948 48.7735 23.1561 48.5658C23.1173 48.3581 23.0187 48.1662 22.8724 48.0137C22.7735 47.91 22.6543 47.8277 22.5224 47.7718C22.3904 47.7158 22.2484 47.6874 22.105 47.6884H19.9446ZM26.4176 47.6884C26.2056 47.6897 25.9986 47.7532 25.8223 47.8708C25.646 47.9885 25.508 48.1553 25.4255 48.3506C25.3429 48.5458 25.3194 48.761 25.3579 48.9695C25.3963 49.1779 25.4951 49.3706 25.6418 49.5235C25.7427 49.6271 25.8633 49.7093 25.9966 49.7652C26.1299 49.8211 26.2731 49.8495 26.4176 49.8489H28.5697C28.6612 49.858 28.7534 49.858 28.845 49.8489L28.6865 47.7301H26.4426L26.4176 47.6884ZM42.5417 33.5412C42.5446 33.7525 42.6092 33.9583 42.7275 34.1334C42.8458 34.3085 43.0127 34.4452 43.2076 34.5267C43.4026 34.6082 43.6171 34.631 43.8248 34.5923C44.0325 34.5535 44.2244 34.4549 44.3769 34.3086C44.4805 34.2097 44.5629 34.0905 44.6188 33.9586C44.6748 33.8266 44.7031 33.6846 44.7022 33.5412V31.3808C44.7031 31.1678 44.6408 30.9593 44.5232 30.7817C44.4055 30.6041 44.2378 30.4655 44.0413 30.3833C43.8448 30.3011 43.6283 30.2791 43.4192 30.32C43.2102 30.361 43.018 30.4631 42.867 30.6133C42.7633 30.7123 42.681 30.8315 42.6251 30.9634C42.5691 31.0954 42.5407 31.2374 42.5417 31.3808V33.5412ZM42.5417 27.0682C42.5285 27.218 42.5467 27.369 42.595 27.5114C42.6433 27.6539 42.7207 27.7847 42.8223 27.8956C42.9239 28.0066 43.0474 28.0951 43.1851 28.1557C43.3228 28.2163 43.4715 28.2476 43.6219 28.2476C43.7724 28.2476 43.9211 28.2163 44.0588 28.1557C44.1965 28.0951 44.32 28.0066 44.4216 27.8956C44.5232 27.7847 44.6006 27.6539 44.6489 27.5114C44.6972 27.369 44.7154 27.218 44.7022 27.0682V24.9078C44.6993 24.6965 44.6347 24.4907 44.5164 24.3156C44.3981 24.1405 44.2312 24.0038 44.0362 23.9223C43.8413 23.8408 43.6268 23.818 43.4191 23.8567C43.2114 23.8955 43.0195 23.994 42.867 24.1403C42.7641 24.2399 42.6823 24.3591 42.6264 24.491C42.5705 24.6228 42.5417 24.7646 42.5417 24.9078V27.0682ZM43.551 21.6879C43.7624 21.6872 43.9688 21.6244 44.1446 21.5071C44.3204 21.3899 44.4578 21.2235 44.5396 21.0286C44.6215 20.8338 44.6441 20.6192 44.6048 20.4116C44.5655 20.204 44.4659 20.0125 44.3185 19.8611C44.2195 19.7574 44.1004 19.6751 43.9684 19.6192C43.8364 19.5632 43.6944 19.5348 43.551 19.5358H41.3906C41.1793 19.5365 40.9728 19.5994 40.797 19.7166C40.6212 19.8339 40.4838 20.0003 40.402 20.1951C40.3202 20.3899 40.2975 20.6045 40.3368 20.8122C40.3762 21.0198 40.4757 21.2112 40.6232 21.3626C40.7221 21.4663 40.8413 21.5487 40.9733 21.6046C41.1052 21.6605 41.2473 21.6889 41.3906 21.6879H43.551ZM37.078 21.6879C37.2193 21.6879 37.3593 21.6601 37.4898 21.606C37.6204 21.5519 37.739 21.4727 37.8389 21.3728C37.9388 21.2728 38.0181 21.1542 38.0722 21.0237C38.1263 20.8931 38.1541 20.7532 38.1541 20.6119C38.1541 20.4706 38.1263 20.3306 38.0722 20.2001C38.0181 20.0695 37.9388 19.9509 37.8389 19.851C37.739 19.7511 37.6204 19.6718 37.4898 19.6177C37.3593 19.5637 37.2193 19.5358 37.078 19.5358H34.9259C34.7846 19.5358 34.6447 19.5637 34.5141 19.6177C34.3836 19.6718 34.265 19.7511 34.165 19.851C34.0651 19.9509 33.9859 20.0695 33.9318 20.2001C33.8777 20.3306 33.8499 20.4706 33.8499 20.6119C33.8499 20.7532 33.8777 20.8931 33.9318 21.0237C33.9859 21.1542 34.0651 21.2728 34.165 21.3728C34.265 21.4727 34.3836 21.5519 34.5141 21.606C34.6447 21.6601 34.7846 21.6879 34.9259 21.6879H37.078ZM30.6134 21.6879C30.8987 21.6879 31.1724 21.5746 31.3742 21.3728C31.576 21.171 31.6894 20.8973 31.6894 20.6119C31.6894 20.3265 31.576 20.0528 31.3742 19.851C31.1724 19.6492 30.8987 19.5358 30.6134 19.5358H28.4529C28.3116 19.5358 28.1717 19.5637 28.0411 19.6177C27.9106 19.6718 27.7919 19.7511 27.692 19.851C27.5921 19.9509 27.5128 20.0695 27.4588 20.2001C27.4047 20.3306 27.3769 20.4706 27.3769 20.6119C27.3769 20.7532 27.4047 20.8931 27.4588 21.0237C27.5128 21.1542 27.5921 21.2728 27.692 21.3728C27.7919 21.4727 27.9106 21.5519 28.0411 21.606C28.1717 21.6601 28.3116 21.6879 28.4529 21.6879H30.6134ZM24.1403 21.6879C24.3517 21.6872 24.5581 21.6244 24.7339 21.5071C24.9097 21.3899 25.0471 21.2235 25.1289 21.0286C25.2108 20.8338 25.2335 20.6192 25.1941 20.4116C25.1548 20.204 25.0552 20.0125 24.9078 19.8611C24.8088 19.7574 24.6897 19.6751 24.5577 19.6192C24.4257 19.5632 24.2837 19.5348 24.1403 19.5358H21.9799C21.7686 19.5365 21.5621 19.5994 21.3863 19.7166C21.2105 19.8339 21.0731 20.0003 20.9913 20.1951C20.9095 20.3899 20.8868 20.6045 20.9261 20.8122C20.9655 21.0198 21.065 21.2112 21.2125 21.3626C21.3114 21.4663 21.4306 21.5487 21.5626 21.6046C21.6945 21.6605 21.8366 21.6889 21.9799 21.6879H24.1403ZM69.2346 61.552C69.1511 45.2527 68.0167 25.525 69.2346 9.71786H3.65359V59.0913C3.65359 59.755 3.91725 60.3915 4.38655 60.8608C4.85585 61.3301 5.49236 61.5937 6.15605 61.5937L69.2346 61.552ZM76.1246 18.0677C75.9482 18.0881 75.7694 18.071 75.6001 18.0174C75.4307 17.9639 75.2746 17.8751 75.142 17.7569C75.0094 17.6387 74.9033 17.4939 74.8306 17.3318C74.7579 17.1697 74.7204 16.9941 74.7204 16.8165C74.7204 16.6389 74.7579 16.4633 74.8306 16.3012C74.9033 16.1391 75.0094 15.9942 75.142 15.8761C75.2746 15.7579 75.4307 15.6691 75.6001 15.6156C75.7694 15.562 75.9482 15.5449 76.1246 15.5653H93.108C93.2844 15.5449 93.4632 15.562 93.6325 15.6156C93.8019 15.6691 93.958 15.7579 94.0906 15.8761C94.2232 15.9942 94.3293 16.1391 94.402 16.3012C94.4747 16.4633 94.5123 16.6389 94.5123 16.8165C94.5123 16.9941 94.4747 17.1697 94.402 17.3318C94.3293 17.4939 94.2232 17.6387 94.0906 17.7569C93.958 17.8751 93.8019 17.9639 93.6325 18.0174C93.4632 18.071 93.2844 18.0881 93.108 18.0677H76.1246ZM77.7512 49.9156H91.4814C91.9352 49.9167 92.3843 50.0074 92.803 50.1826C93.2216 50.3578 93.6015 50.614 93.9209 50.9364C94.2402 51.2589 94.4927 51.6412 94.6638 52.0616C94.835 52.4819 94.9214 52.9319 94.9181 53.3857C94.9159 54.2972 94.5534 55.171 93.9096 55.8163C93.2658 56.4617 92.3929 56.8263 91.4814 56.8307H77.7512C76.8397 56.8263 75.9668 56.4617 75.323 55.8163C74.6792 55.171 74.3167 54.2972 74.3145 53.3857C74.3167 52.4749 74.6795 51.602 75.3236 50.958C75.9676 50.314 76.8404 49.9512 77.7512 49.949V49.9156ZM76.0829 44.1516C75.776 44.1161 75.4928 43.969 75.2872 43.7383C75.0817 43.5076 74.9681 43.2094 74.9681 42.9004C74.9681 42.5914 75.0817 42.2932 75.2872 42.0625C75.4928 41.8318 75.776 41.6847 76.0829 41.6492H93.1664C93.4733 41.6847 93.7565 41.8318 93.9621 42.0625C94.1676 42.2932 94.2812 42.5914 94.2812 42.9004C94.2812 43.2094 94.1676 43.5076 93.9621 43.7383C93.7565 43.969 93.4733 44.1161 93.1664 44.1516H76.0829ZM76.3916 35.4598C76.2151 35.4802 76.0364 35.463 75.867 35.4095C75.6977 35.3559 75.5415 35.2671 75.4089 35.149C75.2763 35.0308 75.1702 34.8859 75.0975 34.7238C75.0248 34.5618 74.9873 34.3862 74.9873 34.2085C74.9873 34.0309 75.0248 33.8553 75.0975 33.6932C75.1702 33.5311 75.2763 33.3863 75.4089 33.2681C75.5415 33.1499 75.6977 33.0612 75.867 33.0076C76.0364 32.954 76.2151 32.9369 76.3916 32.9573H92.8577C93.1647 32.9928 93.4479 33.1399 93.6534 33.3706C93.859 33.6013 93.9726 33.8995 93.9726 34.2085C93.9726 34.5175 93.859 34.8158 93.6534 35.0465C93.4479 35.2772 93.1647 35.4243 92.8577 35.4598H76.3916ZM76.0663 26.7679C75.8898 26.7883 75.711 26.7712 75.5417 26.7176C75.3723 26.664 75.2162 26.5753 75.0836 26.4571C74.951 26.3389 74.8449 26.1941 74.7722 26.032C74.6995 25.8699 74.662 25.6943 74.662 25.5167C74.662 25.3391 74.6995 25.1634 74.7722 25.0014C74.8449 24.8393 74.951 24.6944 75.0836 24.5763C75.2162 24.4581 75.3723 24.3693 75.5417 24.3158C75.711 24.2622 75.8898 24.245 76.0663 24.2655H93.1747C93.4816 24.301 93.7648 24.4481 93.9704 24.6788C94.176 24.9095 94.2895 25.2077 94.2895 25.5167C94.2895 25.8257 94.176 26.1239 93.9704 26.3546C93.7648 26.5853 93.4816 26.7324 93.1747 26.7679H76.0663ZM97.8459 61.0765V10.3184H71.395V61.552H96.4195C96.9394 61.5544 97.446 61.3875 97.8626 61.0765H97.8459ZM38.6212 73.5888H63.896C63.9627 77.9598 65.7645 81.8803 70.6443 84.9583H31.8646C35.7934 82.1138 38.6296 78.6688 38.6129 73.5888H38.6212ZM94.9264 4.10402C95.2564 4.10402 95.5789 4.20187 95.8533 4.38518C96.1276 4.5685 96.3415 4.82905 96.4677 5.13389C96.594 5.43874 96.627 5.77418 96.5627 6.0978C96.4983 6.42141 96.3394 6.71868 96.1061 6.95199C95.8728 7.18531 95.5755 7.3442 95.2519 7.40857C94.9283 7.47294 94.5928 7.43991 94.288 7.31364C93.9831 7.18737 93.7226 6.97354 93.5393 6.69918C93.356 6.42483 93.2581 6.10228 93.2581 5.77233C93.2581 5.32986 93.4339 4.90553 93.7467 4.59266C94.0596 4.27979 94.484 4.10402 94.9264 4.10402ZM83.7154 4.10402C84.0454 4.10402 84.3679 4.20187 84.6423 4.38518C84.9166 4.5685 85.1305 4.82905 85.2567 5.13389C85.383 5.43874 85.416 5.77418 85.3517 6.0978C85.2873 6.42141 85.1284 6.71868 84.8951 6.95199C84.6618 7.18531 84.3645 7.3442 84.0409 7.40857C83.7173 7.47294 83.3818 7.43991 83.077 7.31364C82.7721 7.18737 82.5116 6.97354 82.3283 6.69918C82.145 6.42483 82.0471 6.10228 82.0471 5.77233C82.0471 5.32986 82.2229 4.90553 82.5358 4.59266C82.8486 4.27979 83.273 4.10402 83.7154 4.10402ZM89.3209 4.10402C89.6509 4.10402 89.9734 4.20187 90.2478 4.38518C90.5221 4.5685 90.736 4.82905 90.8622 5.13389C90.9885 5.43874 91.0215 5.77418 90.9572 6.0978C90.8928 6.42141 90.7339 6.71868 90.5006 6.95199C90.2673 7.18531 89.97 7.3442 89.6464 7.40857C89.3228 7.47294 88.9873 7.43991 88.6825 7.31364C88.3776 7.18737 88.1171 6.97354 87.9338 6.69918C87.7505 6.42483 87.6526 6.10228 87.6526 5.77233C87.6526 5.32986 87.8284 4.90553 88.1413 4.59266C88.4541 4.27979 88.8785 4.10402 89.3209 4.10402Z" fill="#377DFF"/>
</g>
<defs>
<clipPath id="clip0_2_316">
<rect width="102.5" height="85" fill="white"/>
</clipPath>
</defs>
</svg>
