<svg width="83" height="90" viewBox="0 0 83 90" fill="none" xmlns="http://www.w3.org/2000/svg">
<path fill-rule="evenodd" clip-rule="evenodd" d="M26.9531 52.0612C26.9527 50.8309 27.1528 49.6072 27.5472 48.4285H54.8665C55.4557 50.1803 55.615 52.0249 55.3336 53.8367C55.0523 55.6484 54.3369 57.3848 53.2362 58.9275C52.1354 60.4702 50.6752 61.7829 48.955 62.7764C47.2348 63.7699 45.2949 64.4207 43.2676 64.6845C41.2402 64.9484 39.173 64.819 37.2067 64.3054C35.2403 63.7917 33.4211 62.9057 31.8729 61.7077C30.3247 60.5098 29.0838 59.028 28.2348 57.3634C27.3859 55.6987 26.9487 53.8902 26.9531 52.0612ZM35.1969 28.0418C33.7972 26.9302 32.6904 26.1237 32.4544 23.8133H32.2998C31.9518 23.8145 31.6095 23.7344 31.307 23.5808C30.8073 23.3041 30.4239 22.8878 30.2165 22.3966C29.7119 21.3576 29.3132 18.6404 30.5827 17.8557L30.3467 17.7177V17.4125C30.2979 16.8676 30.2897 16.2065 30.2734 15.509C30.2734 12.9516 30.1676 9.84926 27.832 9.22443L26.8555 8.95561L27.5065 8.22907C29.2146 6.30366 31.1519 4.54967 33.2845 2.998C35.2007 1.53642 37.5033 0.536075 39.974 0.0918411C41.1264 -0.0741707 42.3055 -0.0146134 43.4296 0.26639C44.5538 0.547394 45.5961 1.04313 46.4844 1.71929C47.1225 2.1861 47.706 2.70946 48.2259 3.28135C49.2594 3.38129 50.2577 3.675 51.1552 4.14327C52.0528 4.61153 52.8294 5.24377 53.4343 5.9986C54.2018 6.91799 54.7754 7.95447 55.127 9.05733C55.4939 10.1793 55.6479 11.3483 55.5827 12.5157C55.5288 14.639 54.5681 16.6637 52.8971 18.1754C53.1805 18.1853 53.4581 18.2498 53.7109 18.3643C54.6712 18.822 54.7038 19.8174 54.4515 20.6602C54.1992 21.3867 53.8818 22.1714 53.5807 22.8398C53.2145 23.7625 52.6856 23.9368 51.6602 23.8351C51.6032 26.1092 50.4313 26.7413 48.8444 28.0708C48.9095 31.4928 35.1237 31.0932 35.2051 28.0708L35.1969 28.0418ZM34.4808 30.8608L38.5905 40.4801L40.6901 35.2345L39.681 34.2537C38.916 33.2583 39.1764 32.1322 40.5925 31.9288C41.0991 31.8958 41.6077 31.8958 42.1143 31.9288C42.6738 31.8933 43.236 31.9128 43.7907 31.9869C45.1009 32.2412 45.2393 33.3746 44.6045 34.2755L43.5872 35.2563L45.5729 40.4801L49.2839 30.8608C51.9613 33.0404 59.8633 33.4472 62.8337 34.9148C66.9027 36.9564 66.805 40.9015 67.7165 44.556H16.0645C16.9515 40.9233 16.8783 36.9274 20.9473 34.9148C24.5768 33.113 31.5267 33.2511 34.4971 30.8608H34.4808ZM9.36686 28.3469C8.66699 27.3588 7.37305 26.022 7.37305 24.8668C7.38875 24.4917 7.53071 24.1296 7.7804 23.8276C8.03009 23.5256 8.37592 23.2979 8.77279 23.174C8.70768 22.2004 8.65886 21.2123 8.65886 20.2315C8.65886 19.6503 8.65886 19.0618 8.65886 18.4878C8.72208 18.1345 8.82012 17.7868 8.95182 17.4488C9.45763 15.9742 10.5638 14.7222 12.0524 13.9397C12.5792 13.6425 13.1415 13.3988 13.7288 13.2131C14.7949 12.8644 14.2822 11.266 15.446 11.2442C18.1722 11.1788 22.6563 13.4238 24.3978 15.1021C25.5125 16.2019 26.1479 17.6225 26.1882 19.1054L26.0417 23.3701C26.2997 23.4173 26.5403 23.522 26.7409 23.6744C26.9415 23.8269 27.0957 24.0221 27.1891 24.242C27.5635 25.5933 26.001 27.2644 25.2686 28.3397C24.9675 28.7829 24.2839 29.6765 23.641 30.5193C22.1522 30.8148 20.7093 31.271 19.3441 31.8779L19.1244 31.9796C14.2415 34.3917 13.5173 38.1407 12.793 41.9405C12.6872 42.4999 12.5814 43.0593 12.4268 43.6914C12.3447 43.9738 12.3037 44.2643 12.3047 44.556H0C0 34.8349 8.31706 37.9227 12.2884 33.0404C12.4837 32.7861 12.5732 32.648 12.5732 32.5318C12.5732 32.4155 9.62728 28.7465 9.36686 28.3469ZM73.055 28.3469C73.7467 27.3588 75.0488 26.022 75.0488 24.8668C75.0331 24.4917 74.8912 24.1296 74.6415 23.8276C74.3918 23.5256 74.046 23.2979 73.6491 23.174C73.7142 22.2004 73.7549 21.2123 73.7549 20.2315C73.7549 19.6503 73.7549 19.0618 73.7549 18.4878C73.7012 18.1362 73.6168 17.7888 73.5026 17.4488C72.9912 15.9768 71.8864 14.7265 70.402 13.9397C69.8716 13.6438 69.3067 13.4002 68.7175 13.2131C67.6514 12.8644 68.1722 11.266 67.0003 11.2442C64.2741 11.1788 59.79 13.4238 58.0485 15.1021C56.9323 16.2005 56.2992 17.6226 56.2663 19.1054L56.3721 23.3701C56.1146 23.4186 55.8747 23.5237 55.6743 23.676C55.4739 23.8282 55.3193 24.0228 55.2246 24.242C54.8584 25.5933 56.4209 27.2644 57.1452 28.3397C57.4137 28.732 57.959 29.4876 58.5775 30.2432C60.6889 30.5791 62.7412 31.163 64.681 31.9796C69.5638 34.4135 70.2555 38.1043 70.9798 41.9041C71.0938 42.5144 71.2077 43.132 71.3786 43.8295C71.4371 44.0681 71.4672 44.3117 71.4681 44.556H82.4056C82.4056 34.8349 74.0886 37.9227 70.1091 33.0404C69.9137 32.7861 69.8242 32.648 69.8242 32.5318C69.8242 32.4155 72.7783 28.7465 73.0794 28.376L73.055 28.3469ZM82.3731 52.5407V55.2289C82.3624 56.4238 81.8254 57.5669 80.8782 58.4112C79.931 59.2555 78.6497 59.7331 77.3112 59.7407H72.1029C71.4545 62.3223 70.4026 64.8096 68.9779 67.1296L72.4284 70.2246C73.3741 71.0787 73.9045 72.2313 73.9045 73.4323C73.9045 74.6333 73.3741 75.7859 72.4284 76.64L68.2048 80.4107C67.2501 81.2585 65.9584 81.7345 64.6118 81.7345C63.2653 81.7345 61.9735 81.2585 61.0189 80.4107L57.8532 77.5844C55.193 79.0626 52.3026 80.1814 49.2757 80.9047V84.7554C49.2714 85.9566 48.735 87.1075 47.7836 87.9569C46.8322 88.8063 45.5431 89.2852 44.1976 89.289H38.2487C36.9032 89.2852 35.6141 88.8063 34.6627 87.9569C33.7113 87.1075 33.1749 85.9566 33.1706 84.7554V80.9556C30.1127 80.2536 27.1909 79.1441 24.5036 77.6644L21.4193 80.4107C20.466 81.2581 19.1756 81.7339 17.8304 81.7339C16.4852 81.7339 15.1948 81.2581 14.2415 80.4107L10.0098 76.64C9.06402 75.7859 8.53362 74.6333 8.53362 73.4323C8.53362 72.2313 9.06402 71.0787 10.0098 70.2246L13.3382 67.2603C11.8714 64.9031 10.789 62.371 10.1237 59.7407H5.12695C3.78568 59.7369 2.50019 59.261 1.54947 58.4163C0.598758 57.5716 0.0595346 56.4263 0.0488281 55.2289V49.8743C0.0513657 49.3797 0.14484 48.8888 0.325521 48.4212H20.9717C20.7654 49.4768 20.6619 50.5464 20.6624 51.618C20.6624 51.9376 20.6624 52.2501 20.6624 52.5625C20.6624 52.8749 20.6624 53.1945 20.6624 53.507C20.6624 58.3454 22.8154 62.9857 26.6476 66.407C30.4798 69.8283 35.6774 71.7504 41.097 71.7504C46.5166 71.7504 51.7142 69.8283 55.5464 66.407C59.3787 62.9857 61.5316 58.3454 61.5316 53.507C61.5316 53.1945 61.5316 52.8749 61.5316 52.5625C61.5316 52.2501 61.5316 51.9376 61.5316 51.618C61.5321 50.5464 61.4287 49.4768 61.2223 48.4212H82.0882C82.2749 48.8876 82.3713 49.379 82.3731 49.8743V52.5407Z" fill="#377DFF"/>
</svg>
