<svg width="102" height="100" viewBox="0 0 102 100" fill="none" xmlns="http://www.w3.org/2000/svg">
<g clip-path="url(#clip0_2_305)">
<path d="M75.9736 53.825C81.5327 53.825 86.5719 56.0855 90.2233 59.7229C93.874 63.3736 96.1204 68.3987 96.1204 73.971C96.1204 78.0365 94.9088 81.8351 92.8392 84.9982L101.56 94.5021L95.5452 100L87.1339 90.7481C83.9411 92.8755 80.0979 94.1178 75.9736 94.1178C70.4162 94.1178 65.3771 91.8565 61.7256 88.2199C58.0749 84.5692 55.8277 79.5433 55.8277 73.971C55.8277 68.4136 58.089 63.3736 61.7256 59.7229C65.3771 56.0714 70.4014 53.825 75.9736 53.825ZM58.9006 54.6556C57.9336 53.4481 56.9178 52.2753 55.8558 51.1257C57.527 51.772 59.2072 52.4167 60.8668 53.0696C60.185 53.5671 59.5287 54.0961 58.9006 54.6556ZM50.9579 80.3127H0C0.51491 74.7545 1.44968 69.2566 3.55478 65.3084C4.8466 62.8851 6.49795 61.3776 9.69072 59.3741C14.7101 56.2268 21.4775 53.692 28.1143 51.1265C24.5925 54.9408 21.5684 59.0006 19.1839 63.7877L26.0918 63.6182L41.9854 77.439L50.5042 70.0311C50.3008 71.3394 50.1942 72.6816 50.1942 74.047C50.1942 76.2075 50.4604 78.306 50.9579 80.3127ZM20.5939 43.6243L24.819 43.5136L28.3242 43.4218C24.2297 30.826 25.6033 19.2516 35.4519 9.41216C37.1239 14.815 40.8696 19.2748 47.2428 22.5701C50.2926 24.8347 53.2374 27.5696 56.093 30.7061C56.598 28.6267 54.6689 26.0943 52.3291 23.485C54.4937 24.5561 56.4831 26.0488 57.8939 28.9316C59.5271 32.2724 59.5089 35.0874 58.9692 38.7141C58.7163 40.401 58.3055 41.9722 57.7203 43.421H63.548C69.6939 30.2573 65.7986 10.7197 53.2225 2.44062C49.3661 -0.100044 46.5907 -0.00416953 42.0664 -3.70268e-05C36.8851 0.00409548 34.2378 0.16609 29.8003 3.09934C23.2561 7.43021 19.2352 14.9183 17.5425 25.3165C17.1962 30.4912 16.9672 39.453 20.5923 43.6243H20.5939ZM36.6338 67.5697L39.7828 56.6442L38.2389 54.9557C37.5422 53.9407 37.3917 53.0531 37.7777 52.2886C38.6125 50.6347 40.3432 50.943 41.9581 50.943C43.6525 50.943 45.7419 50.6207 46.2725 52.7415C46.4485 53.449 46.2254 54.1928 45.7295 54.9557L44.1864 56.6442L47.3337 67.5697L41.9854 71.7973L36.6338 67.5697ZM85.9586 63.986C83.4039 61.4321 79.8706 59.8452 75.9736 59.8452C72.0783 59.8452 68.5442 61.4321 65.9895 63.986C63.4356 66.5407 61.8487 70.0757 61.8487 73.971C61.8487 77.8671 63.4356 81.4004 65.9895 83.9559C68.5442 86.5107 72.0783 88.0967 75.9744 88.0967C79.8706 88.0967 83.4039 86.5107 85.9586 83.9559C88.5133 81.4004 90.0994 77.8671 90.0994 73.971C90.0994 70.0757 88.5133 66.5407 85.9586 63.986Z" fill="#377DFF"/>
</g>
<defs>
<clipPath id="clip0_2_305">
<rect width="101.56" height="100" fill="white"/>
</clipPath>
</defs>
</svg>
