<svg width="32" height="32" viewBox="0 0 32 32" fill="none" xmlns="http://www.w3.org/2000/svg">
<g clip-path="url(#clip0_2_404)">
<path d="M3.31908 9.20941H28.6796C30.5128 9.20941 32 7.56977 32 5.54293C32 3.5147 30.5128 1.87231 28.6796 1.87231H3.31908C1.48992 1.87238 0 3.5147 0 5.54293C0 7.56983 1.48992 9.20941 3.31908 9.20941ZM4.54946 3.28539C5.79632 3.28539 6.8084 4.29607 6.8084 5.54293C6.8084 6.78979 5.79772 7.80047 4.54946 7.80047C3.30393 7.80047 2.29192 6.78979 2.29192 5.54293C2.29192 4.29607 3.30393 3.28539 4.54946 3.28539Z" fill="#377DFF"/>
<path d="M28.6796 12.3322H3.31908C1.48992 12.3322 0 13.9759 0 16.0028C0 18.0296 1.48992 19.6693 3.31908 19.6693H28.6796C30.5128 19.6693 32 18.0296 32 16.0028C32 13.9759 30.5128 12.3322 28.6796 12.3322ZM20.6243 18.2603C19.3775 18.2603 18.3668 17.2496 18.3668 16.0028C18.3668 14.7559 19.3761 13.7452 20.6243 13.7452C21.8725 13.7452 22.8833 14.7559 22.8833 16.0028C22.8819 17.2496 21.8712 18.2603 20.6243 18.2603Z" fill="#377DFF"/>
<path d="M28.6796 22.7905H3.31908C1.48992 22.7905 0 24.4343 0 26.4611C0 28.4866 1.48992 30.1304 3.31908 30.1276H28.6796C30.5128 30.1276 32 28.4866 32 26.4611C32 24.4356 30.5128 22.7905 28.6796 22.7905ZM13.6868 28.7188C12.44 28.7188 11.4293 27.7081 11.4293 26.4598C11.4293 25.2115 12.4386 24.2023 13.6868 24.2023C14.935 24.2023 15.9444 25.2116 15.9444 26.4598C15.9444 27.708 14.9337 28.7188 13.6868 28.7188Z" fill="#377DFF"/>
</g>
<defs>
<clipPath id="clip0_2_404">
<rect width="32" height="32" fill="white"/>
</clipPath>
</defs>
</svg>
